<svg width="360" height="255" viewBox="0 0 360 255" fill="none" xmlns="http://www.w3.org/2000/svg">
<g clip-path="url(#clip0_2_286)">
<path opacity="0.1" d="M119.685 254.857C137.217 254.857 151.429 252.574 151.429 249.758C151.429 246.942 137.217 244.66 119.685 244.66C102.153 244.66 87.941 246.942 87.941 249.758C87.941 252.574 102.153 254.857 119.685 254.857Z" fill="#F50057"/>
<path opacity="0.1" d="M292.241 255C314.118 255 331.853 252.717 331.853 249.902C331.853 247.086 314.118 244.803 292.241 244.803C270.364 244.803 252.629 247.086 252.629 249.902C252.629 252.717 270.364 255 292.241 255Z" fill="#F50057"/>
<path opacity="0.1" d="M4.5088 110.178H37.5722V155.243H6.92935C6.8479 155.706 6.76971 156.172 6.68501 156.638H37.5722V192.982C37.5168 192.965 37.468 192.946 37.4159 192.926C36.5428 192.581 35.6762 192.216 34.8096 191.825L34.2558 191.574C33.387 191.164 32.5183 190.729 31.6495 190.271C31.3466 190.111 31.0436 189.945 30.7439 189.776C25.921 187.074 21.5396 183.651 17.7518 179.625C17.641 179.517 17.5367 179.403 17.426 179.299C16.8982 178.725 16.3802 178.146 15.8785 177.553L15.3247 176.901C14.7318 176.175 14.1584 175.429 13.6013 174.673C13.5199 174.562 13.4417 174.451 13.357 174.347C11.0913 171.206 9.21014 167.804 7.75357 164.215C7.70796 164.108 7.66887 163.99 7.62652 163.889C7.17911 162.738 6.78275 161.576 6.43742 160.404C6.28756 159.912 6.14422 159.426 6.02042 158.915C5.97481 158.765 5.93572 158.618 5.89988 158.472C4.04945 151.249 3.83118 143.747 3.83118 136.296C3.83118 135.426 3.83118 134.553 3.83118 133.69C3.83118 130.676 3.86701 127.643 3.91914 124.614C3.91914 123.828 3.95171 123.047 3.968 122.258C4.01361 120.258 4.07877 118.258 4.16347 116.257C4.18302 115.7 4.20908 115.146 4.2384 114.593C4.2384 114.273 4.25469 113.954 4.28727 113.635C4.36546 112.475 4.43061 111.325 4.5088 110.178Z" fill="#F50057"/>
<path opacity="0.1" d="M37.5722 60.0019H19.436C22.3842 55.3875 25.6054 50.9534 29.0824 46.7232C31.7766 43.4133 34.6207 40.1881 37.5722 37.0801V60.0019Z" fill="#F50057"/>
<path opacity="0.1" d="M37.5722 61.3962V108.784H4.61304C4.61304 108.647 4.63584 108.507 4.64561 108.37C4.67493 107.996 4.70425 107.621 4.73683 107.25C4.77267 106.813 4.81176 106.373 4.85411 105.946C4.89647 105.52 4.94207 104.998 4.99094 104.526C5.03981 104.054 5.08542 103.575 5.1408 103.102C5.19618 102.63 5.24505 102.158 5.30369 101.689C5.36233 101.219 5.41446 100.744 5.47635 100.275C5.52522 99.8837 5.57734 99.4961 5.62947 99.1051C5.7044 98.5546 5.78259 98.0007 5.86729 97.4534C5.86729 97.372 5.89009 97.2873 5.90313 97.2091C6.49774 93.2025 7.30793 89.231 8.33019 85.3117C9.40024 81.2003 10.7667 77.1718 12.4187 73.2579C14.1746 69.1634 16.2304 65.2042 18.5695 61.4125L37.5722 61.3962Z" fill="#F50057"/>
<path opacity="0.5" d="M-44.5342 110.175V155.243H26.0852V110.175H-44.5342ZM-44.5342 156.635V195.337C-44.1302 195.422 -43.7295 195.503 -43.3321 195.572C-42.7913 195.676 -42.2537 195.77 -41.7032 195.852C-41.5989 195.868 -41.4914 195.884 -41.3774 195.894C-41.1624 195.93 -40.9408 195.959 -40.7258 195.989C-40.1818 196.063 -39.641 196.125 -39.0969 196.174C-38.8395 196.2 -38.5789 196.223 -38.3183 196.243L-37.6895 196.292C-37.3475 196.318 -37.0087 196.337 -36.6731 196.347C-36.4646 196.347 -36.2561 196.366 -36.0411 196.373C-35.8782 196.373 -35.7153 196.373 -35.5459 196.373C-35.3765 196.373 -35.1354 196.373 -34.9302 196.373C-34.65 196.373 -34.3698 196.373 -34.0929 196.373H-33.7183C-33.4381 196.373 -33.1579 196.373 -32.881 196.347H-32.8615C-32.6693 196.347 -32.4738 196.347 -32.2783 196.321C-32.2241 196.324 -32.1697 196.324 -32.1154 196.321C-31.9526 196.321 -31.7897 196.321 -31.6333 196.298H-31.5193L-30.4279 196.213C-30.0695 196.181 -29.7079 196.138 -29.3431 196.099L-28.6003 196.011C-25.5784 195.588 -22.5901 194.952 -19.6576 194.109C-13.0703 192.271 -6.62642 189.701 -0.042408 187.818C8.47022 185.391 17.8755 184.199 26.1014 187.166V156.635H-44.5342ZM26.0852 60.002V0.00337461C18.3535 -0.0803908 10.6429 0.823907 3.14047 2.69431C-14.7416 7.1868 -30.7863 16.9308 -44.5342 29.3756V59.9988H-40.9897V61.3899H-44.5342V108.784H26.0852V61.3931H-26.4371V60.002H26.0852ZM116.792 39.7353C112.368 39.579 107.97 38.1781 103.992 36.0149C96.3852 31.8776 90.3094 25.489 83.5202 20.0974C69.4139 8.86781 51.9195 2.09162 33.9723 0.410598V60.002H134.785L135.036 59.7382L116.792 39.7353ZM125.976 38.1065L135.713 48.792V35.3048C132.452 35.7087 129.595 36.6698 125.989 38.0934L125.976 38.1065ZM135.713 204.947V156.635H114.964C114.909 156.429 114.854 156.221 114.789 156.012C114.85 156.221 114.903 156.429 114.961 156.635H33.9853V191.574C34.7542 192.144 35.5132 192.744 36.2658 193.353C37.077 194.005 37.8784 194.692 38.6831 195.366L39.4943 196.037C39.8819 196.363 40.2729 196.689 40.6671 196.995C41.4489 197.629 42.2384 198.255 43.0355 198.872C43.4297 199.197 43.8336 199.491 44.2344 199.797C50.5959 204.661 57.3066 209.05 64.3122 212.929C65.8824 213.798 67.4668 214.646 69.0653 215.473C70.1306 216.017 71.2024 216.558 72.2775 217.083C73.8934 217.871 75.5223 218.631 77.1642 219.363C92.302 226.158 108.309 230.821 124.728 233.219C128.375 233.757 132.035 234.181 135.71 234.489V204.944H136.036L135.713 204.947ZM33.9853 61.3931V108.784H135.726V61.3931H33.9853ZM33.9853 110.175V155.243H135.726V110.175H33.9853ZM143.623 35.2461V50.2906L156.052 36.6535C151.934 35.9889 147.791 35.5143 143.623 35.2298V35.2461ZM143.623 110.191V155.243H242.579V110.175L143.623 110.191ZM242.217 208.525L242.566 156.635H143.623V235.007C149.997 235.275 156.381 235.199 162.747 234.779H162.857C165.898 234.588 168.924 234.31 171.937 233.945H172.005C188.076 232.075 203.791 227.882 218.657 221.497L242.217 208.525ZM261.66 117.596C261.289 116.72 260.901 115.85 260.507 114.99C259.77 113.361 258.992 111.778 258.19 110.195H250.469V155.243H269.99C269.98 142.486 266.752 129.455 261.67 117.58L261.66 117.596ZM250.469 156.651V201.282C255.969 196.011 260.614 189.981 263.96 183.088C267.983 174.787 269.824 165.799 269.974 156.644L250.469 156.651ZM250.469 97.0594V108.787H257.467C255.35 104.75 253.017 100.83 250.479 97.0431L250.469 97.0594ZM183.359 44.0877C182.844 43.8923 182.329 43.6936 181.811 43.5013C176.348 41.4839 170.766 39.8062 165.095 38.4778L146.076 59.3505L145.712 59.7382L145.956 60.0053H213.646C204.219 53.5159 194.055 48.1673 183.368 44.0715L183.359 44.0877ZM215.63 61.4094H145.011L143.623 62.6799V108.784H155.788H155.807H242.592V86.452C234.741 76.9574 225.68 68.5327 215.64 61.3931L215.63 61.4094Z" fill="#DD638F"/>
<path opacity="0.1" d="M37.5722 85.2986V108.784H4.61304C4.61304 108.647 4.63584 108.507 4.64561 108.37C4.67493 107.996 4.70425 107.621 4.73683 107.25C4.77267 106.813 4.81176 106.373 4.85411 105.946C4.89647 105.52 4.94207 104.998 4.99094 104.526C5.03981 104.054 5.08542 103.575 5.1408 103.102C5.19618 102.63 5.24505 102.158 5.30369 101.689C5.36233 101.219 5.41446 100.744 5.47635 100.275C5.52522 99.8837 5.57734 99.4961 5.62947 99.1051C5.7044 98.5546 5.78259 98.0007 5.86729 97.4534C5.86729 97.372 5.89009 97.2873 5.90313 97.2091C6.49774 93.2025 7.30793 89.231 8.33019 85.3117L37.5722 85.2986Z" fill="#F50057"/>
<path opacity="0.1" d="M4.5088 110.178H37.5722V155.243H6.92935C6.8479 155.706 6.76971 156.172 6.68501 156.638H37.5722V192.982C37.5168 192.965 37.468 192.946 37.4159 192.926C36.5428 192.581 35.6762 192.216 34.8096 191.825L34.2558 191.574C33.387 191.164 32.5183 190.729 31.6495 190.271C31.3466 190.111 31.0436 189.945 30.7439 189.776C25.921 187.074 21.5396 183.651 17.7518 179.625C17.641 179.517 17.5367 179.403 17.426 179.299C16.8982 178.725 16.3802 178.146 15.8785 177.553L15.3247 176.901C14.7318 176.175 14.1584 175.429 13.6013 174.673C13.5199 174.562 13.4417 174.451 13.357 174.347C11.0913 171.206 9.21014 167.804 7.75357 164.215C7.70796 164.108 7.66887 163.99 7.62652 163.889C7.17911 162.738 6.78275 161.576 6.43742 160.404C6.28756 159.912 6.14422 159.426 6.02042 158.915C5.97481 158.765 5.93572 158.618 5.89988 158.472C4.04945 151.249 3.83118 143.747 3.83118 136.296C3.83118 135.426 3.83118 134.553 3.83118 133.69C3.83118 130.676 3.86701 127.643 3.91914 124.614C3.91914 123.828 3.95171 123.047 3.968 122.258C4.01361 120.258 4.07877 118.258 4.16347 116.257C4.18302 115.7 4.20908 115.146 4.2384 114.593C4.2384 114.273 4.25469 113.954 4.28727 113.635C4.36546 112.475 4.43061 111.325 4.5088 110.178Z" fill="#F50057"/>
<path opacity="0.1" d="M70.3262 68.179V108.784H45.4659V68.179H49.0104V54.4311H63.5597V68.179H70.3262Z" fill="#F50057"/>
<path opacity="0.1" d="M70.3261 110.175H45.4691V155.24H70.3261V110.175Z" fill="#F50057"/>
<path opacity="0.1" d="M45.4659 156.638H70.3262V194.102C67.3936 194.945 64.4053 195.58 61.3835 196.001L60.6407 196.093C60.2758 196.135 59.9142 196.171 59.5559 196.207C59.1975 196.243 58.8261 196.269 58.4645 196.291H58.3505C58.1941 196.291 58.0247 196.311 57.8716 196.314H57.7054C57.51 196.314 57.3145 196.334 57.119 196.34C56.8421 196.357 56.5652 196.36 56.2818 196.363C56.1612 196.363 56.0472 196.363 55.9267 196.363C55.6465 196.363 55.3696 196.363 55.0894 196.363H54.4737C54.3076 196.363 54.1479 196.363 53.9753 196.363L53.3465 196.34C53.0207 196.34 52.6689 196.304 52.3301 196.282L51.7046 196.236L50.926 196.164C50.3786 196.116 49.8346 196.054 49.2971 195.979L48.6455 195.887L48.3197 195.842C47.7757 195.757 47.2381 195.666 46.6908 195.562C46.2901 195.493 45.8927 195.409 45.4887 195.327L45.4659 156.638Z" fill="#F50057"/>
<path opacity="0.1" d="M225.726 63.3835H205.228V108.781H225.726V63.3835Z" fill="#F50057"/>
<path opacity="0.1" d="M225.73 110.175V155.243H123.985V135.804H178.179V147.272H205.228V110.175H225.73Z" fill="#F50057"/>
<path opacity="0.1" d="M226.052 204.957H225.726V234.522C222.056 234.211 218.396 233.789 214.748 233.254C198.321 230.849 182.307 226.177 167.164 219.37C162.792 217.402 158.509 215.254 154.315 212.926C147.31 209.045 140.598 204.655 134.234 199.794C132.636 198.569 131.058 197.315 129.501 196.034C128.422 195.145 127.351 194.233 126.266 193.346C125.513 192.737 124.754 192.138 123.985 191.564V156.638H204.958C204.903 156.429 204.847 156.221 204.789 156.015C204.85 156.221 204.909 156.429 204.965 156.638H225.726V204.938C225.837 204.941 225.945 204.951 226.052 204.957Z" fill="#F50057"/>
<path opacity="0.1" d="M189.187 60.002H175.83V55.8516H181.818V43.4883C182.337 43.6772 182.854 43.8716 183.369 44.0714V55.8516H189.187V60.002Z" fill="#F50057"/>
<path opacity="0.1" d="M221.368 108.784H155.795C155.795 108.784 155.795 108.784 155.817 108.801L155.788 108.784H143.623V63.387H147.07V96.9422H162.822V77.0697H175.833V61.3965H189.19V77.0827H202.202V96.9552H221.368V108.784Z" fill="#F50057"/>
<path opacity="0.1" d="M143.623 110.175V155.244H221.368V110.175H143.623ZM242.472 208.293L242.579 172.621H221.368V156.657H143.623V235.007C149.997 235.275 156.381 235.199 162.747 234.779H162.857C165.898 234.588 168.925 234.31 171.937 233.945H172.005C188.076 232.075 203.791 227.882 218.657 221.497" fill="#F50057"/>
<path opacity="0.1" d="M341.851 156.638H359.987C359.827 165.789 357.99 174.777 353.97 183.078C350.624 189.975 345.975 196.005 340.482 201.273V172.604H341.851V156.638Z" fill="#F50057"/>
<path opacity="0.1" d="M359.997 155.243H341.851V117.58H351.67C356.752 129.455 359.98 142.486 359.997 155.243Z" fill="#F50057"/>
<path opacity="0.1" d="M225.73 76.0042H214.748V90.2374H225.73V76.0042Z" fill="#F50057"/>
<path opacity="0.1" d="M225.73 105.507H214.748V108.784H225.73V105.507Z" fill="#F50057"/>
<path opacity="0.1" d="M225.73 110.175H214.748V119.737H225.73V110.175Z" fill="#F50057"/>
<path opacity="0.1" d="M225.73 135.009H214.748V149.242H225.73V135.009Z" fill="#F50057"/>
<path opacity="0.1" d="M225.73 164.512H214.748V178.745H225.73V164.512Z" fill="#F50057"/>
<path opacity="0.1" d="M225.726 204.938C225.837 204.938 225.945 204.938 226.052 204.957H225.726V208.264H214.748V194.014H225.726V204.938Z" fill="#F50057"/>
<path opacity="0.1" d="M225.726 223.51V234.505C222.056 234.195 218.396 233.772 214.748 233.238V223.51H225.726Z" fill="#F50057"/>
<path opacity="0.1" d="M171.051 154.198H123.985V155.243H171.051V154.198Z" fill="#F50057"/>
<path opacity="0.1" d="M171.051 156.634H123.985V160.641H171.051V156.634Z" fill="#F50057"/>
<path opacity="0.1" d="M171.051 173.777H123.985V180.221H171.051V173.777Z" fill="#F50057"/>
<path opacity="0.1" d="M171.048 193.356V199.8H134.234C132.636 198.579 131.057 197.326 129.498 196.041C128.419 195.151 127.351 194.239 126.263 193.356H171.048Z" fill="#F50057"/>
<path opacity="0.1" d="M171.048 212.932V219.37H167.161C162.793 217.4 158.512 215.251 154.315 212.922L171.048 212.932Z" fill="#F50057"/>
<path opacity="0.1" d="M172.015 114.544H162.75V123.809H172.015V114.544Z" fill="#F50057"/>
<path opacity="0.1" d="M61.4063 71.3748H52.1411V80.64H61.4063V71.3748Z" fill="#F50057"/>
<path opacity="0.1" d="M61.4063 92.8958H52.1411V102.161H61.4063V92.8958Z" fill="#F50057"/>
<path opacity="0.1" d="M61.4063 114.417H52.1411V123.682H61.4063V114.417Z" fill="#F50057"/>
<path opacity="0.1" d="M61.4063 135.934H52.1411V145.2H61.4063V135.934Z" fill="#F50057"/>
<path opacity="0.1" d="M61.4063 157.455H52.1411V166.72H61.4063V157.455Z" fill="#F50057"/>
<path opacity="0.1" d="M61.4063 178.976H52.1411V188.241H61.4063V178.976Z" fill="#F50057"/>
<path opacity="0.1" d="M207.385 114.544H198.12V123.809H207.385V114.544Z" fill="#F50057"/>
<path opacity="0.1" d="M172.015 137.397H162.75V146.662H172.015V137.397Z" fill="#F50057"/>
<path opacity="0.1" d="M207.385 137.397H198.12V146.662H207.385V137.397Z" fill="#F50057"/>
<path opacity="0.1" d="M172.015 160.247H162.75V169.512H172.015V160.247Z" fill="#F50057"/>
<path opacity="0.1" d="M207.385 160.247H198.12V169.512H207.385V160.247Z" fill="#F50057"/>
<path opacity="0.1" d="M172.015 183.101H162.75V192.366H172.015V183.101Z" fill="#F50057"/>
<path opacity="0.1" d="M207.385 183.101H198.12V192.366H207.385V183.101Z" fill="#F50057"/>
<path opacity="0.1" d="M172.015 205.954H162.75V215.219H172.015V205.954Z" fill="#F50057"/>
<path opacity="0.1" d="M207.385 205.954H198.12V215.219H207.385V205.954Z" fill="#F50057"/>
<path opacity="0.1" d="M252.75 234.779V228.804H262.012V233.929L252.75 234.779Z" fill="#F50057"/>
<path opacity="0.1" d="M5.86401 97.2026V102.503H37.5722V97.2026H5.86401ZM9.02408 102.171H6.43739V97.5284H9.04363L9.02408 102.171ZM12.1809 102.171H9.57465V97.5284H12.1809V102.171ZM15.3312 102.171H12.7249V97.5284H15.3312V102.171ZM18.488 102.171H15.885V97.5284H18.4913L18.488 102.171ZM21.6415 102.171H19.0353V97.5284H21.6415V102.171ZM24.7984 102.171H22.1921V97.5284H24.7984V102.171ZM27.9552 102.171H25.3489V97.5284H27.9552V102.171ZM31.1087 102.171H28.5025V97.5284H31.1087V102.171ZM34.2623 102.171H31.656V97.5284H34.2623V102.171ZM37.4158 102.171H34.8096V97.5284H37.4158V102.171Z" fill="#F50057"/>
<path opacity="0.1" d="M5.86401 112.625V117.925H37.5722V112.625H5.86401ZM9.02408 117.59H6.43739V112.96H9.04363L9.02408 117.59ZM12.1809 117.59H9.57465V112.96H12.1809V117.59ZM15.3312 117.59H12.7249V112.96H15.3312V117.59ZM18.488 117.59H15.885V112.96H18.4913L18.488 117.59ZM21.6415 117.59H19.0353V112.96H21.6415V117.59ZM24.7984 117.59H22.1921V112.96H24.7984V117.59ZM27.9552 117.59H25.3489V112.96H27.9552V117.59ZM31.1087 117.59H28.5025V112.96H31.1087V117.59ZM34.2623 117.59H31.656V112.96H34.2623V117.59ZM37.4158 117.59H34.8096V112.96H37.4158V117.59Z" fill="#F50057"/>
<path opacity="0.1" d="M5.86401 128.054V133.364H37.5722V128.054H5.86401ZM9.02408 133.019H6.43739V128.386H9.04363L9.02408 133.019ZM12.1809 133.019H9.57465V128.386H12.1809V133.019ZM15.3312 133.019H12.7249V128.386H15.3312V133.019ZM18.488 133.019H15.885V128.386H18.4913L18.488 133.019ZM21.6415 133.019H19.0353V128.386H21.6415V133.019ZM24.7984 133.019H22.1921V128.386H24.7984V133.019ZM27.9552 133.019H25.3489V128.386H27.9552V133.019ZM31.1087 133.019H28.5025V128.386H31.1087V133.019ZM34.2623 133.019H31.656V128.386H34.2623V133.019ZM37.4158 133.019H34.8096V128.386H37.4158V133.019Z" fill="#F50057"/>
<path opacity="0.1" d="M5.86401 143.483V148.777H37.5722V143.483H5.86401ZM9.02408 148.448H6.43739V143.812H9.04363L9.02408 148.448ZM12.1809 148.448H9.57465V143.812H12.1809V148.448ZM15.3312 148.448H12.7249V143.812H15.3312V148.448ZM18.488 148.448H15.885V143.812H18.4913L18.488 148.448ZM21.6415 148.448H19.0353V143.812H21.6415V148.448ZM24.7984 148.448H22.1921V143.812H24.7984V148.448ZM27.9552 148.448H25.3489V143.812H27.9552V148.448ZM31.1087 148.448H28.5025V143.812H31.1087V148.448ZM34.2623 148.448H31.656V143.812H34.2623V148.448ZM37.4158 148.448H34.8096V143.812H37.4158V148.448Z" fill="#F50057"/>
<path opacity="0.1" d="M6.00085 158.908C6.12791 159.407 6.27125 159.905 6.42111 160.397V159.241H9.02735V163.873H7.63301C7.67536 163.981 7.71771 164.098 7.76006 164.199H37.5722V158.908H6.00085ZM12.1907 163.873H9.58444V159.241H12.1907V163.873ZM15.341 163.873H12.7347V159.241H15.341V163.873ZM18.4978 163.873H15.885V159.241H18.4913L18.4978 163.873ZM21.6513 163.873H19.0451V159.241H21.6513V163.873ZM24.8081 163.873H22.2019V159.241H24.8081V163.873ZM27.9649 163.873H25.3587V159.241H27.9649V163.873ZM31.1185 163.873H28.5123V159.241H31.1185V163.873ZM34.2721 163.873H31.6658V159.241H34.2721V163.873ZM37.4256 163.873H34.8194V159.241H37.4256V163.873Z" fill="#F50057"/>
<path opacity="0.1" d="M13.3635 174.337C13.445 174.441 13.5232 174.559 13.6079 174.663H15.3312V176.888C15.5169 177.11 15.6994 177.331 15.8883 177.54V174.65H18.4946V179.299H17.439C17.5433 179.406 17.6443 179.52 17.7648 179.625H37.582V174.337H13.3635ZM21.6416 179.299H19.0354V174.669H21.6416V179.299ZM24.7984 179.299H22.1922V174.669H24.7984V179.299ZM27.9552 179.299H25.349V174.669H27.9552V179.299ZM31.1088 179.299H28.5025V174.669H31.1088V179.299ZM34.2623 179.299H31.6561V174.669H34.2623V179.299ZM37.4159 179.299H34.8096V174.669H37.4159V179.299Z" fill="#F50057"/>
<path opacity="0.1" d="M30.7569 189.763C31.0534 189.932 31.3563 190.089 31.6626 190.258V190.095H34.2688V191.561L34.8226 191.818V190.095H37.4289V192.913C37.4788 192.938 37.5312 192.958 37.5852 192.972V189.763H30.7569Z" fill="#F50057"/>
<path opacity="0.1" d="M245.795 108.784H245.814H245.795ZM225.726 204.934H226.052H225.726ZM204.789 156.012C204.85 156.221 204.903 156.429 204.961 156.634C204.909 156.429 204.854 156.221 204.789 156.012ZM245.795 108.774H245.814H245.795ZM49.0234 59.9921V61.3832H63.576V59.9921H49.0234ZM225.726 204.934H226.052H225.726ZM204.789 156.012C204.85 156.221 204.903 156.429 204.961 156.634C204.909 156.429 204.854 156.221 204.789 156.012ZM245.795 108.774H245.814H245.795ZM225.726 204.925H226.052H225.726ZM204.789 156.012C204.85 156.221 204.903 156.429 204.961 156.634C204.909 156.429 204.854 156.221 204.789 156.012Z" fill="#F50057"/>
<path d="M150.38 123.688C150.38 123.688 149.096 123.509 149.096 121.639C149.096 119.769 148.178 116.277 148.178 116.277C148.178 116.261 147.383 110.195 146.285 109.23C145.187 108.266 143.776 102.604 143.776 102.604C143.776 102.604 143.535 99.5319 143.043 98.8706C142.552 98.2093 141.887 96.5901 140.906 94.2804C139.926 91.9706 135.837 90.371 135.837 90.371C135.837 90.371 128.445 86.0838 126.351 84.6862C126.16 84.5713 125.982 84.4371 125.82 84.2855C125.455 83.8066 123.865 83.7968 123.865 83.7968C123.699 82.7478 123.539 81.5424 123.487 80.4511C123.487 80.3338 123.487 80.2165 123.471 80.0992C125.806 78.7185 127.566 76.5416 128.426 73.9681C128.465 73.8443 128.497 73.7139 128.533 73.5902C128.673 73.544 128.802 73.4692 128.911 73.3705C129.021 73.2718 129.108 73.1513 129.169 73.0168C129.357 72.5965 129.361 72.1046 129.595 71.7137C129.869 71.2511 130.39 71.0035 130.801 70.6549C131.837 69.7753 132.104 68.293 132.055 66.9443C132.022 65.8529 131.846 64.7518 131.915 63.6669L131.934 63.3933C131.954 63.2304 131.977 63.0675 132.006 62.9111C132.166 62.1032 132.514 61.3409 132.71 60.5395C132.905 59.738 132.925 58.8356 132.469 58.145C131.801 57.1318 130.41 56.9298 129.188 56.8256C127.804 56.7083 126.566 56.8614 125.679 55.7114C125.265 55.1104 124.798 54.5468 124.285 54.0271C124.103 53.8577 122.33 52.7762 122.33 52.7045C120.601 51.9034 118.64 51.753 116.808 52.281C115.89 52.5481 115.023 52.9846 114.091 53.2029C112.081 53.6786 109.768 53.1638 108.061 54.3138C107.11 54.9654 106.54 56.0014 106.006 57.0113C105.571 57.8431 105.13 58.6738 104.683 59.5035C103.963 60.8685 103.23 62.2563 102.927 63.7679C102.863 64.0969 102.824 64.4301 102.81 64.7648V64.7811C102.81 64.9016 102.81 65.0222 102.81 65.1427V65.2958C102.81 65.4098 102.81 65.5206 102.829 65.6216C102.849 65.7226 102.845 65.7552 102.855 65.8236C102.865 65.892 102.881 66.0451 102.901 66.1494C102.92 66.2536 102.96 66.4361 102.999 66.5794C103.015 66.6413 103.038 66.6999 103.057 66.7586C103.09 66.8693 103.129 66.9768 103.171 67.0843C103.194 67.1397 103.217 67.1984 103.243 67.2538C103.292 67.3678 103.35 67.4785 103.409 67.5795C103.435 67.6251 103.455 67.6675 103.481 67.7098C103.572 67.8614 103.672 68.0071 103.78 68.1464C104.478 69.0162 105.504 69.57 106.263 70.3845C106.263 70.4171 106.263 70.4496 106.263 70.479C106.263 70.5702 106.263 70.6581 106.263 70.7494C106.303 72.5657 106.787 74.3448 107.671 75.9317C108.556 77.5187 109.815 78.8654 111.339 79.8549C111.339 79.9787 111.355 80.1057 111.361 80.2295C111.425 81.1965 111.413 82.1671 111.326 83.1322C111.193 82.976 111.027 82.8515 110.84 82.7681C110.652 82.6846 110.449 82.6443 110.244 82.6501C110.104 82.6432 109.964 82.6553 109.827 82.6859L109.798 82.6631V82.6924C109.081 82.8683 108.198 83.6144 107.354 85.7352C107.354 85.7352 104.787 88.6281 102.832 88.5076C100.878 88.387 95.9292 91.5178 95.9292 91.5178C95.9292 91.5178 91.1011 94.6518 90.0651 97.8444C89.4861 99.6548 88.7918 101.426 87.9867 103.148L82.0184 115.446L80.9172 125.203C80.9172 125.203 81.5264 129.543 81.4059 130.204C81.2854 130.865 83.9112 136.83 83.9112 136.83C83.9112 136.83 92.5867 152.074 96.1312 152.855L96.3853 152.676C96.5369 152.755 96.6978 152.816 96.8642 152.855L97.5939 152.341C97.6377 152.914 97.6192 153.491 97.5385 154.061C97.0499 155.566 97.721 165.388 98.5745 167.313C99.4281 169.239 99.1251 194.483 99.1251 194.483L99.0046 196.712C99.0046 196.712 99.0045 196.783 99.0339 196.907L99.0046 197.435L99.0925 197.481C99.1838 198.187 99.1541 198.905 99.0046 199.601C98.6983 200.579 98.5745 203.341 98.5745 203.341C98.5745 203.341 96.1344 218.94 97.2909 222.074C98.4475 225.208 99.4313 228.641 99.4313 228.641C99.4313 228.641 100.653 232.551 99.49 233.218C98.3269 233.886 95.0203 235.007 95.7011 236.636C96.3201 238.141 98.669 242.174 99.0176 242.764L98.9883 243.073L98.5094 248.263C98.5869 248.948 98.7727 249.617 99.0599 250.244C99.5844 251.374 100.604 252.547 102.543 252.42C102.868 252.397 103.246 252.358 103.611 252.309C107.159 251.833 111.528 250.25 111.528 250.25C111.301 250.106 111.093 249.934 110.909 249.739C110.734 249.57 110.596 249.367 110.502 249.143C110.409 248.919 110.362 248.678 110.364 248.436C110.417 247.491 108.648 242.989 108.208 241.881C108.139 241.721 108.104 241.63 108.104 241.63C108.104 241.63 112.137 237.415 111.466 233.678C111.466 233.678 107.002 231.072 108.472 229.641C109.941 228.211 112.567 224.103 112.567 224.103C112.567 224.103 112.687 208.743 112.567 206.449C112.441 204.857 112.517 203.256 112.792 201.683C112.84 201.445 112.899 201.214 112.961 200.986C114.993 201.289 117.044 201.445 119.099 201.452C119.848 201.452 120.61 201.452 121.379 201.406C121.379 201.623 121.389 201.858 121.408 202.11C121.578 205.915 121.894 212.587 122.151 215.066C122.516 218.62 124.533 228.198 124.533 228.198C124.533 228.198 120.685 230.668 125.204 236.753C125.204 236.753 125.204 238.959 124.904 239.278C124.584 240.322 124.326 241.383 124.132 242.458C123.943 243.604 123.865 244.764 124.171 245.367C124.904 246.807 129.302 246.689 129.302 246.689L129.41 246.67C130.24 246.584 131.079 246.664 131.878 246.905C132.677 247.146 133.421 247.543 134.065 248.074C135.736 249.416 142.079 248.827 145.513 248.4C146.858 248.23 147.758 248.074 147.758 248.074C147.801 247.922 147.817 247.763 147.803 247.605C147.767 246.761 147.106 244.911 142.623 243.259C142.623 243.259 138.408 240.425 138.466 237.955H138.378H137.89C138.245 237.936 138.473 237.955 138.473 237.955C138.473 237.955 136.821 231.928 137.495 231.44C138.17 230.951 136.15 224.273 136.15 224.273C136.15 224.273 134.993 213.066 134.932 212.281C134.934 211.607 135.036 210.937 135.235 210.293L134.932 204.149C134.932 204.149 134.873 202.107 134.932 201.442C134.922 200.865 134.875 200.29 134.791 199.719C134.762 199.491 134.733 199.253 134.7 199.018C136.28 198.618 137.306 198.246 137.306 198.246L137.124 176.859C138.466 174.253 138.714 168.535 138.707 164.479C138.707 161.873 138.59 159.944 138.59 159.944L140.424 156.95C140.424 156.95 140.848 153.367 140.177 152.582C139.88 152.227 140.014 151.859 140.258 151.556C140.385 151.455 140.519 151.363 140.659 151.282C140.659 151.282 140.639 151.253 140.616 151.21C140.744 151.103 140.881 151.006 141.024 150.92C141.024 150.92 140.372 149.91 140.955 149.484C141.503 149.855 141.991 150.135 142.363 150.363C142.337 150.601 142.31 150.738 142.31 150.738L142.467 150.412C142.825 150.614 143.043 150.738 143.043 150.738C143.043 150.738 145.917 145.014 145.855 144.17C145.793 143.326 147.81 139.772 147.81 139.772C147.81 139.772 148.054 137.905 149.155 137.124C150.256 136.342 150.009 130.676 150.009 130.676C150.009 130.676 150.315 127.725 151.048 126.519C151.781 125.314 150.38 123.688 150.38 123.688ZM95.4014 121.177L95.4568 122.542C95.131 122.017 94.8965 121.639 94.8965 121.639L95.4014 121.177Z" fill="url(#paint0_linear_2_286)"/>
<path d="M143.2 148.265L142.496 151.262C142.496 151.262 136.86 148.386 135.844 144.73C134.827 141.075 137.544 139.687 137.544 139.687L142.796 141.912L143.2 148.265Z" fill="white"/>
<path opacity="0.1" d="M143.2 148.265L142.496 151.262C142.496 151.262 136.86 148.386 135.844 144.73C134.827 141.075 137.544 139.687 137.544 139.687L142.796 141.912L143.2 148.265Z" fill="black"/>
<path d="M111.57 250.27C111.57 250.27 106.357 252.185 102.774 252.426C100.871 252.553 99.8711 251.387 99.3564 250.263C99.0752 249.638 98.8938 248.973 98.8188 248.292L99.2847 243.129L99.5323 240.379L107.146 238.402L108.224 241.698L108.325 241.949C108.758 243.05 110.495 247.53 110.443 248.465C110.441 248.704 110.487 248.942 110.579 249.163C110.67 249.384 110.806 249.584 110.977 249.752C111.152 249.949 111.351 250.123 111.57 250.27Z" fill="white"/>
<path d="M147.174 247.644C147.187 247.801 147.172 247.959 147.129 248.11C147.129 248.11 135.981 249.97 133.7 248.11C133.057 247.566 132.308 247.163 131.5 246.927C130.692 246.69 129.843 246.625 129.009 246.735C129.009 246.735 124.696 246.852 123.976 245.432C123.676 244.836 123.754 243.679 123.94 242.539C124.129 241.471 124.382 240.414 124.696 239.376L124.868 239.239L125.894 238.415L137.909 238.06H138C137.942 240.516 142.079 243.334 142.079 243.334C146.474 244.963 147.122 246.803 147.174 247.644Z" fill="white"/>
<path opacity="0.1" d="M147.174 247.644C147.186 247.801 147.169 247.959 147.126 248.11C147.126 248.11 135.981 249.97 133.7 248.11C133.058 247.567 132.309 247.164 131.501 246.927C130.694 246.691 129.846 246.625 129.012 246.735C129.012 246.735 124.696 246.852 123.979 245.432C123.679 244.832 123.754 243.679 123.94 242.539C125.601 242.705 128.224 243.119 129.253 244.106C130.81 245.608 133.449 247.106 135.068 247.224C136.336 247.305 143.917 247.546 147.174 247.644Z" fill="black"/>
<path opacity="0.1" d="M111.57 250.27C111.57 250.27 106.357 252.185 102.774 252.426C100.871 252.553 99.8712 251.387 99.3597 250.26C100.686 250.706 102.526 251.175 103.494 250.745C104.641 250.237 108.706 249.908 110.987 249.768C111.16 249.958 111.356 250.126 111.57 250.27Z" fill="black"/>
<path d="M119.304 95.8995C115.004 94.2282 109.472 88.7063 110.853 86.1261C111.16 85.475 111.342 84.7723 111.391 84.0542C111.48 83.0793 111.493 82.099 111.43 81.1221C111.333 79.5223 111.14 77.9296 110.853 76.3527C110.853 76.3527 124.279 76.6557 123.497 78.6332C123.269 79.2131 123.233 80.2197 123.295 81.3469C123.357 82.4741 123.519 83.7479 123.689 84.8263C123.923 86.3053 124.158 87.4325 124.158 87.4325C124.158 87.4325 123.337 88.5825 122.855 88.6444C122.373 88.7063 125.474 98.2809 119.304 95.8995Z" fill="#CF6F80"/>
<path opacity="0.1" d="M108.315 241.949L108.214 242.06C104.201 237.206 99.3466 243.256 99.3466 243.256L99.275 243.129L99.5226 240.379L107.136 238.402L108.214 241.698L108.315 241.949Z" fill="black"/>
<path opacity="0.1" d="M138.004 238.402C138.004 238.402 135.072 238.34 133.508 239.721C131.944 241.102 124.386 240.021 124.712 239.721C124.808 239.572 124.867 239.402 124.881 239.226L125.907 238.402L137.922 238.046C137.968 238.265 138.004 238.402 138.004 238.402Z" fill="black"/>
<path d="M113.31 200.282C113.091 200.822 112.925 201.382 112.814 201.953C112.543 203.519 112.467 205.112 112.59 206.697C112.71 208.977 112.59 224.26 112.59 224.26C112.59 224.26 110.013 228.335 108.576 229.772C107.139 231.208 111.508 233.789 111.508 233.789C112.16 237.502 108.211 241.698 108.211 241.698C104.198 236.844 99.3434 242.897 99.3434 242.897C99.3434 242.897 96.7046 238.336 96.0465 236.708C95.3884 235.079 98.6234 233.951 99.7604 233.29C100.897 232.629 99.705 228.729 99.705 228.729C99.705 228.729 98.744 225.312 97.6037 222.194C96.4635 219.076 98.8612 203.556 98.8612 203.556C98.8612 203.556 98.985 200.8 99.2815 199.839C99.4311 199.146 99.4608 198.432 99.3695 197.728C99.3499 197.49 99.3271 197.292 99.3108 197.158C99.2945 197.024 99.2815 196.963 99.2815 196.963L99.3271 196.884L100.956 193.848C100.956 193.848 114.091 198.37 113.31 200.282Z" fill="#F50057"/>
<path d="M138.004 238.043C138.004 238.043 135.072 237.981 133.508 239.346C131.944 240.711 124.386 239.646 124.712 239.346C125.038 239.047 125.012 236.828 125.012 236.828C120.578 230.775 124.36 228.319 124.36 228.319C124.36 228.319 122.379 218.79 122.021 215.255C121.77 212.786 121.461 206.149 121.294 202.361C121.223 200.732 121.18 199.611 121.18 199.611L124.803 198.881L125.269 198.787L134.006 197.034C134.006 197.034 134.247 198.663 134.41 199.996C134.492 200.564 134.537 201.138 134.547 201.712C134.489 202.364 134.547 204.403 134.547 204.403L134.844 210.518C134.65 211.16 134.55 211.826 134.547 212.496C134.606 213.274 135.743 224.422 135.743 224.422C135.743 224.422 137.72 231.075 137.046 231.554C136.372 232.033 138.004 238.043 138.004 238.043Z" fill="#F50057"/>
<path opacity="0.1" d="M123.497 78.6332C123.269 79.2131 123.233 80.2197 123.295 81.3469C121.496 82.4298 119.429 82.9835 117.33 82.9443C115.232 82.9051 113.186 82.2747 111.43 81.1254C111.333 79.5244 111.141 77.9307 110.853 76.3527C110.853 76.3527 124.279 76.6492 123.497 78.6332Z" fill="black"/>
<path d="M128.686 71.4335C128.689 72.6074 128.504 73.7743 128.139 74.89C127.323 77.3899 125.649 79.5208 123.414 80.9061C121.178 82.2913 118.525 82.8417 115.923 82.4601C113.321 82.0784 110.938 80.7892 109.195 78.8203C107.452 76.8514 106.46 74.3296 106.397 71.7006C106.397 71.6094 106.397 71.5247 106.397 71.4335C106.371 69.9537 106.641 68.4836 107.19 67.1091C107.738 65.7346 108.555 64.4831 109.593 63.4277C110.631 62.3722 111.868 61.5339 113.233 60.9617C114.598 60.3895 116.063 60.0948 117.543 60.0948C119.023 60.0948 120.488 60.3895 121.853 60.9617C123.218 61.5339 124.456 62.3722 125.493 63.4277C126.531 64.4831 127.348 65.7346 127.897 67.1091C128.445 68.4836 128.715 69.9537 128.69 71.4335H128.686Z" fill="#CF6F80"/>
<path opacity="0.1" d="M119.304 95.8995C115.004 94.2282 109.472 88.7063 110.853 86.1261C111.16 85.475 111.342 84.7723 111.391 84.0542L117.278 88.892L120.92 91.8794L123.689 84.8295C123.923 86.3085 124.158 87.4357 124.158 87.4357C124.158 87.4357 123.337 88.5857 122.855 88.6476C122.373 88.7095 125.474 98.2809 119.304 95.8995Z" fill="black"/>
<path d="M134.528 117.28L129.612 199.865L123.2 200.285L106.599 152.399L109.322 95.5476L109.895 83.5362L117.278 89.5989L120.923 92.5863L123.774 85.3312L129.074 89.9508L134.528 117.28Z" fill="#F50057"/>
<path opacity="0.1" d="M113.31 200.282C113.091 200.822 112.925 201.382 112.814 201.953C108.149 201.233 103.618 199.818 99.3727 197.754L99.2847 197.709L99.314 197.184L99.3303 196.91L100.959 193.874C100.959 193.874 114.091 198.37 113.31 200.282Z" fill="black"/>
<path opacity="0.1" d="M124.878 201.966C123.685 202.169 122.483 202.306 121.275 202.377C121.203 200.748 121.161 199.627 121.161 199.627L124.784 198.898L124.878 201.966Z" fill="black"/>
<path opacity="0.1" d="M134.391 200.012C132.074 200.615 128.497 201.292 125.295 200.869L125.249 198.803L133.987 197.05C133.987 197.05 134.228 198.663 134.391 200.012Z" fill="black"/>
<path opacity="0.1" d="M125.236 201.247C111.879 203.527 99.6463 196.989 99.6463 196.989L99.7636 194.773C99.7636 194.773 100.067 169.659 99.2261 167.734C98.3856 165.808 97.7308 156.045 98.2064 154.546C98.682 153.048 96.47 130.575 96.47 130.575L96.1116 121.454L82.9957 116.14L88.8598 103.917C89.6518 102.203 90.333 100.44 90.8992 98.6393C91.9188 95.4662 96.6524 92.3485 96.6524 92.3485C96.6524 92.3485 101.507 89.234 103.425 89.3513C105.344 89.4686 107.859 86.5952 107.859 86.5952C109.716 81.8617 111.397 84.0053 111.397 84.0053C111.397 84.2301 111.397 84.0053 111.306 84.7057C110.654 89.9019 121.842 106.321 122.001 106.611L123.067 132.563L124.145 165.404L125.236 201.247Z" fill="black"/>
<path d="M124.878 201.247C111.521 203.527 99.2847 196.989 99.2847 196.989L99.4052 194.773C99.4052 194.773 99.7082 169.659 98.8644 167.734C98.0207 165.808 97.3691 156.045 97.848 154.546C98.3269 153.048 96.1116 130.575 96.1116 130.575L95.75 121.454L82.6276 116.121L88.4916 103.897C89.2819 102.183 89.9631 100.42 90.531 98.6197C91.5474 95.4466 96.2843 92.3289 96.2843 92.3289C96.2843 92.3289 101.138 89.2145 103.054 89.3318C104.97 89.4491 107.488 86.5757 107.488 86.5757C109.348 81.8421 111.397 83.9857 111.397 83.9857C111.397 84.2105 111.202 84.3115 111.306 84.6862C112.739 89.726 121.483 106.302 121.643 106.592L122.721 132.543L123.8 165.385L124.878 201.247Z" fill="white"/>
<path opacity="0.1" d="M121.278 107.331C119.841 106.732 112.231 98.0431 112.231 98.0431V96.0656C111.954 95.4141 110.309 95.8115 108.973 96.2676L109.547 84.2561L110.198 84.7969C111.625 89.8335 121.112 107.041 121.278 107.331Z" fill="black"/>
<path d="M121.64 106.611C120.2 106.012 112.59 97.3231 112.59 97.3231V95.3456C112.313 94.6941 110.667 95.0915 109.332 95.5476L109.908 83.5362L110.56 84.077C111.99 89.1135 121.48 106.324 121.64 106.611Z" fill="white"/>
<path opacity="0.1" d="M99.6463 149.943C99.8255 149.943 108.934 148.985 108.934 148.985C108.934 148.985 114.45 159.83 114.088 162.469C113.727 165.108 113.072 167.444 110.853 167.03C108.635 166.616 98.9133 167.356 98.9133 167.356L99.6463 149.943Z" fill="black"/>
<path d="M99.2848 149.223C99.4639 149.223 108.573 148.265 108.573 148.265C108.573 148.265 114.085 159.114 113.727 161.749C113.368 164.385 112.707 166.724 110.492 166.31C108.276 165.896 98.5518 166.636 98.5518 166.636L99.2848 149.223Z" fill="white"/>
<path d="M106.149 144.131C106.149 144.131 114.508 148.623 114.688 149.995C114.867 151.367 110.433 149.396 109.475 149.158C108.845 149.006 108.203 148.906 107.556 148.858L101.168 149.031L106.149 144.131Z" fill="#CF6F80"/>
<path opacity="0.1" d="M118.946 107.891C119.431 107.891 119.825 107.498 119.825 107.012C119.825 106.526 119.431 106.132 118.946 106.132C118.46 106.132 118.066 106.526 118.066 107.012C118.066 107.498 118.46 107.891 118.946 107.891Z" fill="black"/>
<path d="M118.946 107.533C119.431 107.533 119.825 107.139 119.825 106.653C119.825 106.168 119.431 105.774 118.946 105.774C118.46 105.774 118.066 106.168 118.066 106.653C118.066 107.139 118.46 107.533 118.946 107.533Z" fill="#3F3D56"/>
<path opacity="0.1" d="M120.565 145.968C121.05 145.968 121.444 145.575 121.444 145.089C121.444 144.603 121.05 144.209 120.565 144.209C120.079 144.209 119.685 144.603 119.685 145.089C119.685 145.575 120.079 145.968 120.565 145.968Z" fill="black"/>
<path d="M120.565 145.607C121.05 145.607 121.444 145.213 121.444 144.727C121.444 144.241 121.05 143.848 120.565 143.848C120.079 143.848 119.685 144.241 119.685 144.727C119.685 145.213 120.079 145.607 120.565 145.607Z" fill="#3F3D56"/>
<path opacity="0.1" d="M119.822 126.93C120.308 126.93 120.702 126.536 120.702 126.05C120.702 125.564 120.308 125.171 119.822 125.171C119.336 125.171 118.942 125.564 118.942 126.05C118.942 126.536 119.336 126.93 119.822 126.93Z" fill="black"/>
<path d="M119.822 126.572C120.308 126.572 120.702 126.178 120.702 125.692C120.702 125.206 120.308 124.812 119.822 124.812C119.336 124.812 118.942 125.206 118.942 125.692C118.942 126.178 119.336 126.572 119.822 126.572Z" fill="#3F3D56"/>
<path d="M140.098 148.676C140.098 148.676 140.698 149.575 140.098 149.995C139.499 150.415 140.157 151.432 140.157 151.432C140.157 151.432 138.662 152.308 139.32 153.096C139.978 153.885 139.561 157.446 139.561 157.446L137.763 160.423C137.763 160.423 137.87 162.342 137.877 164.935C137.877 168.981 137.639 174.669 136.323 177.263L136.505 198.539C136.505 198.539 130.208 200.839 124.937 200.139L124.155 165.997C124.155 165.997 125.295 146.636 125.715 142.922C125.961 140.994 126.061 139.05 126.015 137.107C126.015 137.107 125.836 131.295 125.233 128.598C125.233 128.598 124.582 116.912 124.516 113.677C124.487 112.13 124.569 107.614 124.66 103.321C124.761 98.6262 124.875 94.1989 124.875 94.1989L123.686 84.7904C123.686 84.7904 124.875 84.6699 125.233 85.1488C125.394 85.2987 125.568 85.4329 125.754 85.5495C127.807 86.9373 135.059 91.205 135.059 91.205C135.059 91.205 139.072 92.8013 140.033 95.0883C140.994 97.3752 141.662 98.9976 142.128 99.6492C142.594 100.301 142.848 103.363 142.848 103.363C142.848 103.363 144.229 108.999 145.308 109.954C146.386 110.908 147.174 116.981 147.174 116.981L137.645 124.474C137.645 124.474 136.808 136.938 136.629 137.42C136.45 137.902 140.098 148.676 140.098 148.676Z" fill="white"/>
<path d="M140.46 148.676C140.46 148.676 141.056 149.575 140.46 149.995C139.864 150.415 140.515 151.432 140.515 151.432C140.515 151.432 139.03 152.318 139.681 153.106C140.333 153.895 139.923 157.455 139.923 157.455L138.124 160.433C138.124 160.433 138.232 162.352 138.241 164.945C138.241 168.991 138.004 174.679 136.688 177.272L136.867 198.549C136.867 198.549 130.56 200.849 125.295 200.149L124.516 166.007C124.516 166.007 125.657 146.646 126.077 142.932C126.323 141.004 126.422 139.06 126.373 137.117C126.373 137.117 126.194 131.305 125.595 128.608C125.595 128.608 124.943 116.922 124.875 113.687C124.845 112.14 124.93 107.624 125.018 103.33C125.119 98.636 125.233 94.2087 125.233 94.2087L123.663 84.6731C123.663 84.6731 125.233 84.6731 125.595 85.1585C125.754 85.3103 125.928 85.4446 126.116 85.5593C128.168 86.9471 135.423 91.2148 135.423 91.2148C135.423 91.2148 139.434 92.8111 140.395 95.0981C141.356 97.385 142.024 99.0074 142.493 99.659C142.962 100.311 143.21 103.373 143.21 103.373C143.21 103.373 144.591 109.009 145.669 109.963C146.748 110.918 147.526 116.977 147.526 116.977L137.997 124.47C137.997 124.47 137.16 136.935 136.977 137.417C136.795 137.899 140.46 148.676 140.46 148.676Z" fill="white"/>
<path opacity="0.1" d="M129.048 96.9745L129.908 99.483L125.38 104.044C125.481 99.3527 125.595 94.9221 125.595 94.9221L124.024 85.3866C124.024 85.3866 125.595 85.3866 125.956 85.872C126.115 86.0233 126.29 86.1566 126.478 86.2695L130.328 97.3785L129.048 96.9745Z" fill="black"/>
<path d="M128.686 96.2546L129.55 98.7631L125.021 103.324C125.122 98.6295 125.236 94.2022 125.236 94.2022L123.663 84.6666C123.663 84.6666 125.236 84.6666 125.595 85.152C125.755 85.3028 125.929 85.4371 126.116 85.5527L129.97 96.6585L128.686 96.2546Z" fill="white"/>
<path opacity="0.1" d="M128.686 71.4335C128.689 72.6074 128.504 73.7743 128.139 74.89C128.078 74.8996 128.015 74.8968 127.954 74.8817C127.894 74.8666 127.837 74.8395 127.787 74.802C127.703 71.87 126.259 69.1172 124.484 66.7749C123.985 66.0676 123.381 65.4413 122.692 64.9179C121.995 64.3948 121.129 64.1497 120.262 64.2305C119.284 64.3641 118.421 65.0287 117.434 65.1134C116.131 65.2209 114.965 64.3185 113.671 64.2729C113.145 64.2779 112.627 64.395 112.15 64.6163C111.673 64.8376 111.249 65.1581 110.905 65.5564C110.226 66.3602 109.721 67.2966 109.423 68.306C108.911 69.8367 108.632 71.4357 108.596 73.0494C108.579 73.9615 108.491 75.105 107.644 75.4373C107.708 74.7665 107.632 74.0897 107.42 73.4498C107.209 72.81 106.867 72.221 106.416 71.7202L106.397 71.7006C106.397 71.6094 106.397 71.5247 106.397 71.4335C106.371 69.9537 106.641 68.4836 107.19 67.1091C107.738 65.7346 108.555 64.4831 109.593 63.4277C110.631 62.3722 111.868 61.5339 113.233 60.9617C114.598 60.3895 116.063 60.0948 117.543 60.0948C119.023 60.0948 120.488 60.3895 121.853 60.9617C123.218 61.5339 124.456 62.3722 125.493 63.4277C126.531 64.4831 127.348 65.7346 127.897 67.1091C128.445 68.4836 128.715 69.9537 128.69 71.4335H128.686Z" fill="black"/>
<path d="M122.158 53.7339C120.465 52.9376 118.539 52.787 116.743 53.3104C115.841 53.5776 114.991 54.0108 114.075 54.2291C112.12 54.7015 109.84 54.19 108.162 55.3335C107.231 55.9851 106.67 57.0145 106.149 58.0147L104.846 60.4971C104.136 61.8556 103.419 63.2369 103.122 64.7322C102.826 66.2275 103.005 67.902 103.953 69.1042C104.644 69.9805 105.664 70.5311 106.413 71.3553C106.862 71.8566 107.202 72.4453 107.413 73.0844C107.624 73.7234 107.7 74.3991 107.638 75.0692C108.488 74.7434 108.569 73.5966 108.589 72.6845C108.625 71.0708 108.904 69.4718 109.416 67.9411C109.714 66.9314 110.219 65.9949 110.899 65.1916C111.242 64.7936 111.667 64.4733 112.144 64.252C112.62 64.0307 113.139 63.9134 113.665 63.908C114.968 63.9536 116.137 64.8528 117.427 64.7452C118.405 64.6638 119.271 63.996 120.255 63.8656C121.123 63.7836 121.99 64.0287 122.686 64.553C123.374 65.0756 123.978 65.7021 124.474 66.41C126.253 68.7523 127.696 71.4986 127.781 74.4372C128.149 74.7076 128.68 74.3557 128.862 73.9387C129.045 73.5217 129.051 73.0331 129.283 72.6356C129.55 72.1763 130.061 71.9319 130.462 71.5866C131.478 70.7103 131.732 69.2345 131.693 67.8955C131.654 66.5566 131.394 65.1981 131.648 63.8819C131.801 63.074 132.146 62.3182 132.335 61.52C132.524 60.7219 132.547 59.826 132.101 59.1386C131.449 58.1287 130.077 57.93 128.882 57.8355C127.523 57.7182 126.308 57.8681 125.442 56.7246C125.035 56.1279 124.577 55.5676 124.073 55.0501C123.901 54.8807 122.158 53.8056 122.158 53.7339Z" fill="#512E4E"/>
<path opacity="0.1" d="M86.7487 122.434L83.3443 116.14L82.266 125.852C82.266 125.852 82.8654 130.165 82.7449 130.826C82.6243 131.488 85.2013 137.417 85.2013 137.417C85.2013 137.417 93.7139 152.578 97.19 153.36L108.934 144.968L105.82 141.013C105.82 141.013 104.742 140.593 104.471 141.013C104.471 141.013 98.6886 131.064 98.0891 130.344C97.4897 129.624 97.607 128.187 97.607 128.187C97.607 128.187 96.7078 127.23 97.0075 126.33C97.3073 125.431 95.2711 122.314 95.2711 122.314L97.1281 120.577L86.7487 122.434Z" fill="black"/>
<path d="M83.5235 115.423L82.6244 116.14L81.546 125.852C81.546 125.852 82.1455 130.165 82.0249 130.826C81.9044 131.488 84.4846 137.417 84.4846 137.417C84.4846 137.417 92.9939 152.578 96.47 153.36L108.218 144.968L105.1 141.013C105.1 141.013 104.022 140.593 103.751 141.013C103.751 141.013 97.9686 131.064 97.3692 130.344C96.7697 129.624 96.8903 128.187 96.8903 128.187C96.8903 128.187 95.9911 127.23 96.2908 126.33C96.5905 125.431 94.5512 122.314 94.5512 122.314L96.4081 120.577L83.5235 115.423Z" fill="white"/>
<path opacity="0.1" d="M139.32 153.468C139.971 154.259 139.561 157.814 139.561 157.814L137.763 160.791C137.763 160.791 137.87 162.713 137.877 165.303L134.853 166.248C134.58 166.333 134.29 166.352 134.009 166.303C133.727 166.253 133.461 166.137 133.233 165.964C133.005 165.791 132.821 165.566 132.698 165.308C132.575 165.049 132.515 164.765 132.524 164.479L133.045 147.666L140.098 150.363C139.499 150.78 140.157 151.803 140.157 151.803C140.157 151.803 138.662 152.676 139.32 153.468Z" fill="black"/>
<path d="M139.681 153.106C140.333 153.898 139.923 157.455 139.923 157.455L138.124 160.433C138.124 160.433 138.232 162.352 138.242 164.945L135.163 165.906C134.895 165.989 134.612 166.007 134.336 165.959C134.06 165.91 133.799 165.796 133.576 165.627C133.353 165.457 133.174 165.237 133.053 164.984C132.932 164.731 132.874 164.453 132.882 164.173L133.407 147.307L140.463 150.005C139.861 150.422 140.519 151.441 140.519 151.441C140.519 151.441 139.03 152.318 139.681 153.106Z" fill="white"/>
<path d="M142.017 145.092C142.017 145.092 141.538 148.151 140.34 148.33C139.141 148.509 138.603 153.279 137.407 153.109C136.212 152.94 137.004 148.676 137.046 147.848C137.088 147.021 135.743 143.593 136.749 142.815C137.756 142.036 140.942 142.815 140.942 142.815L142.017 145.092Z" fill="#CF6F80"/>
<path opacity="0.1" d="M144.568 121.535L146.829 116.974C146.829 116.974 147.728 120.45 147.728 122.307C147.728 124.164 148.986 124.346 148.986 124.346C148.986 124.346 150.364 125.975 149.637 127.161C148.911 128.347 148.618 131.299 148.618 131.299C148.618 131.299 148.855 136.931 147.777 137.71C146.699 138.489 146.474 140.349 146.474 140.349C146.474 140.349 144.493 143.883 144.555 144.724C144.617 145.564 141.799 151.256 141.799 151.256C141.799 151.256 143.177 144.183 135.147 141.127C135.147 141.127 135.085 138.726 135.684 138.068C136.284 137.41 137.219 137.11 136.632 133.784C136.046 130.458 136.463 126.484 136.463 125.685C136.463 124.887 138.261 119.909 138.261 119.909L144.568 121.535Z" fill="black"/>
<path d="M145.546 116.323L147.52 116.974C147.52 116.974 148.422 120.45 148.422 122.307C148.422 124.164 149.68 124.346 149.68 124.346C149.68 124.346 151.058 125.975 150.331 127.161C149.605 128.347 149.315 131.299 149.315 131.299C149.315 131.299 149.553 136.931 148.474 137.71C147.396 138.489 147.155 140.349 147.155 140.349C147.155 140.349 145.177 143.883 145.239 144.724C145.301 145.564 142.48 151.256 142.48 151.256C142.48 151.256 143.861 144.183 135.827 141.127C135.827 141.127 135.769 138.726 136.368 138.068C136.968 137.41 137.903 137.11 137.316 133.784C136.73 130.458 137.147 126.484 137.147 125.685C137.147 124.887 138.945 119.909 138.945 119.909L145.546 116.323Z" fill="white"/>
<path opacity="0.1" d="M101.94 234.538C101.94 234.538 105.087 232.56 107.152 233.997C109.218 235.434 101.94 234.538 101.94 234.538Z" fill="black"/>
<path opacity="0.1" d="M126.393 228.423C126.393 228.423 129.178 228.065 131.517 230.583C133.857 233.101 126.393 228.423 126.393 228.423Z" fill="black"/>
<g opacity="0.1">
<path opacity="0.1" d="M130.468 70.8732C130.068 71.2185 129.553 71.4661 129.286 71.9254C129.058 72.3196 129.051 72.805 128.869 73.2285C128.686 73.6521 128.155 73.9974 127.787 73.7302C127.703 70.7982 126.256 68.0454 124.481 65.6998C123.984 64.9919 123.381 64.3655 122.692 63.8428C121.995 63.3186 121.127 63.0735 120.258 63.1555C119.281 63.289 118.421 63.9536 117.434 64.0351C116.131 64.1458 114.961 63.2434 113.668 63.1978C113.142 63.203 112.624 63.3206 112.147 63.5425C111.671 63.7644 111.247 64.0857 110.905 64.4846C110.225 65.2868 109.72 66.2222 109.423 67.2309C108.911 68.7617 108.632 70.3606 108.596 71.9743C108.576 72.8832 108.491 74.0169 107.651 74.3557C107.67 74.5964 107.67 74.8383 107.651 75.079C108.498 74.7532 108.582 73.6064 108.602 72.6943C108.638 71.0806 108.917 69.4816 109.43 67.9509C109.727 66.9412 110.232 66.0047 110.912 65.2013C111.255 64.8034 111.678 64.4832 112.155 64.2618C112.631 64.0405 113.149 63.9232 113.674 63.9178C114.978 63.9634 116.15 64.8625 117.44 64.755C118.418 64.6736 119.284 64.0057 120.265 63.8754C121.133 63.7935 122.001 64.0386 122.699 64.5628C123.387 65.0854 123.991 65.7119 124.487 66.4198C126.263 68.7621 127.709 71.5084 127.794 74.4469C128.162 74.7173 128.693 74.3655 128.875 73.9485C129.058 73.5315 129.064 73.0428 129.292 72.6454C129.559 72.186 130.074 71.9417 130.475 71.5964C131.491 70.72 131.745 69.2443 131.706 67.9053C131.706 67.863 131.706 67.8206 131.706 67.7815C131.644 68.9413 131.335 70.1239 130.468 70.8732Z" fill="black"/>
<path opacity="0.1" d="M106.419 70.6418C105.67 69.8176 104.647 69.2671 103.96 68.394C103.381 67.6211 103.05 66.6907 103.012 65.7258C102.909 66.9315 103.246 68.1336 103.96 69.1107C104.647 69.987 105.67 70.5376 106.419 71.3618C107.139 72.168 107.571 73.19 107.647 74.2678C107.697 73.6118 107.614 72.9526 107.403 72.3295C107.192 71.7065 106.858 71.1324 106.419 70.6418Z" fill="black"/>
<path opacity="0.1" d="M132.342 60.8066C132.149 61.6047 131.807 62.3638 131.651 63.1685C131.558 63.7062 131.524 64.2524 131.55 64.7974C131.561 64.4869 131.595 64.1777 131.651 63.8722C131.807 63.0642 132.149 62.3084 132.342 61.5103C132.454 61.07 132.49 60.614 132.449 60.1616C132.429 60.3789 132.393 60.5945 132.342 60.8066Z" fill="black"/>
</g>
<path opacity="0.1" d="M43.2408 247.784C60.7725 247.784 74.9848 245.501 74.9848 242.686C74.9848 239.87 60.7725 237.587 43.2408 237.587C25.709 237.587 11.4968 239.87 11.4968 242.686C11.4968 245.501 25.709 247.784 43.2408 247.784Z" fill="#F50057"/>
<path d="M44.2637 145.017H42.2211V191.007H44.2637V145.017Z" fill="#535461"/>
<path d="M57.0995 190.867L56.9724 192.939L56.79 195.871L56.715 197.09L56.5359 200.022L56.4577 201.24L56.2752 204.172L54.2163 237.424C54.1268 238.855 53.4955 240.198 52.4509 241.179C51.4063 242.161 50.0268 242.708 48.5933 242.708H37.8882C36.455 242.708 35.076 242.161 34.0319 241.179C32.9878 240.197 32.3572 238.855 32.2685 237.424L30.2193 204.149L30.0369 201.217L29.962 199.999L29.7795 197.067L29.7046 195.848L29.5222 192.916L29.3919 190.844C29.3692 190.446 29.4283 190.046 29.5655 189.671C29.7027 189.296 29.915 188.953 30.1896 188.663C30.4641 188.373 30.7951 188.142 31.1621 187.984C31.5291 187.827 31.9245 187.746 32.3239 187.746H54.2196C54.6175 187.75 55.0105 187.835 55.3743 187.996C55.7381 188.157 56.065 188.391 56.3349 188.684C56.6048 188.976 56.8118 189.321 56.9433 189.696C57.0748 190.072 57.128 190.47 57.0995 190.867Z" fill="#3F3D56"/>
<path d="M56.9724 192.939L56.79 195.861H29.6916L29.5092 192.939H56.9724Z" fill="#9D9CB5"/>
<path d="M56.7151 197.08L56.5359 200.005H29.949L29.7665 197.08H56.7151Z" fill="#9D9CB5"/>
<path d="M56.4577 201.227L56.2785 204.149H30.2063L30.0239 201.227H56.4577Z" fill="#9D9CB5"/>
<path d="M26.3914 162.254C38.2857 170.861 43.2506 184.322 43.2506 184.322C43.2506 184.322 28.9162 183.83 17.0187 175.223C5.12125 166.616 0.166138 153.158 0.166138 153.158C0.166138 153.158 14.4939 153.647 26.3914 162.254Z" fill="#F50057"/>
<path d="M0.156372 153.158C0.156372 153.158 15.038 161.417 19.8107 168.255C24.5834 175.093 43.2506 184.322 43.2506 184.322" stroke="#535461" stroke-width="2" stroke-miterlimit="10"/>
<path d="M34.0701 144.916C40.5433 149.598 43.2505 156.924 43.2505 156.924C43.2505 156.924 35.4481 156.657 28.9716 151.976C22.4951 147.294 19.7944 139.964 19.7944 139.964C19.7944 139.964 27.5935 140.231 34.0701 144.916Z" fill="#F50057"/>
<path d="M19.7944 139.964C19.7944 139.964 27.8933 144.46 30.4897 148.18C33.0862 151.901 43.2505 156.924 43.2505 156.924" stroke="#535461" stroke-width="2" stroke-miterlimit="10"/>
<path d="M52.6493 156.553C45.2118 164.727 43.6382 175.409 43.6382 175.409C43.6382 175.409 54.1251 172.835 61.5561 164.658C68.9872 156.481 70.5672 145.802 70.5672 145.802C70.5672 145.802 60.0869 148.379 52.6493 156.553Z" fill="#F50057"/>
<path d="M70.5737 145.805C70.5737 145.805 60.885 154.185 58.4221 159.957C55.9593 165.73 43.6382 175.409 43.6382 175.409" stroke="#535461" stroke-width="2" stroke-miterlimit="10"/>
<path d="M235.673 153.676C235.673 153.676 230.294 126.917 232.353 123.587C232.353 123.587 232.428 120.492 232.304 116.547C232.304 116.397 232.304 116.248 232.304 116.094C232.666 116.336 233.044 116.554 233.434 116.746C235.331 117.721 237.509 118.002 239.592 117.541L237.963 115.726C237.572 115.293 237.165 114.824 237.08 114.25C236.995 113.677 237.23 113.166 237.432 112.654C238.979 108.745 239.061 103.829 236.08 100.845C233.562 98.3362 232.949 95.098 230.216 92.8077C228.219 91.13 227.121 88.6704 226.085 86.2922C225.208 84.2821 224.326 82.2558 223.824 80.1252C223.433 78.4604 223.277 76.7371 222.739 75.1114C222.202 73.4858 221.195 71.9058 219.621 71.1793C219.061 70.9219 218.439 70.7753 217.927 70.4333C217.256 69.9804 216.852 69.2442 216.367 68.5991C213.901 65.3414 205.642 67.2602 201.733 68.5828C200.67 68.9159 199.686 69.4612 198.84 70.1857L198.876 70.127C198.905 70.0782 198.941 70.0293 198.973 69.9804C198.546 70.3264 198.176 70.7389 197.879 71.2021C197.309 72.1045 197.071 73.1568 196.595 74.1341C196.022 75.2906 192.832 78.5191 194.204 79.819C194.3 79.9062 194.41 79.9767 194.53 80.0274C195.045 80.2417 195.612 80.2984 196.159 80.1903L196.1 80.3304C195.632 81.4773 195.391 82.7045 195.393 83.9433C195.393 89.2958 199.807 93.6352 205.258 93.6352C206.282 93.6362 207.301 93.4791 208.278 93.1694C208.3 93.2932 208.32 93.417 208.343 93.5408C208.343 93.5896 208.359 93.6385 208.366 93.6873L208.193 93.9284C208.184 93.9136 208.175 93.8994 208.164 93.8861L203.049 101.034C202.267 101.584 197.765 104.842 197.511 107.285C197.244 109.96 196.976 113.091 196.976 113.091L196.941 113.762C196.717 113.949 196.456 114.085 196.174 114.161C195.893 114.237 195.599 114.251 195.312 114.202C193.715 113.941 193.715 120.066 193.715 120.066C193.715 120.066 192.653 121.043 191.924 120.196C191.194 119.349 189.265 122.219 189.265 122.219L177.179 122.74L176.902 122.757L176.25 120.74C176.18 120.527 176.029 120.351 175.829 120.249C175.63 120.147 175.398 120.128 175.185 120.196C175.134 120.213 175.085 120.233 175.038 120.258L174.993 120.284L174.908 120.343L174.866 120.382C174.842 120.403 174.821 120.426 174.801 120.45L174.761 120.496L174.742 120.515C174.667 120.619 174.617 120.739 174.596 120.866C174.576 120.993 174.586 121.123 174.625 121.245L175.185 122.975C172.852 123.444 170.468 124.767 172.413 128.409L162.554 126.588L165.744 129.266L182.209 132.664C181.99 133.054 182.134 133.621 182.815 134.419C185.747 137.863 191.09 138.798 193.24 139.039C193.808 140.309 194.517 141.511 195.354 142.623L195.168 146.053C195.168 146.053 189.725 172.2 188.728 173.526C189.231 172.956 189.691 172.349 190.106 171.711C188.526 177.083 186.317 184.436 185.737 185.537C184.805 187.297 183.942 194.415 185.004 194.871C185.33 195.011 186.261 194.943 187.591 194.842V195.431L187.532 217.776C187.532 217.776 187.799 231.482 187.066 232.788C186.333 234.095 186.138 236.834 186.138 236.834C186.138 236.834 183.206 242.239 180.883 244.412C180.867 244.429 180.85 244.444 180.831 244.458L180.759 243.949C180.759 243.949 177.967 247.474 171.79 247.276C171.79 247.276 168.073 249.693 173.585 249.823C179.098 249.954 186.138 249.628 186.138 249.628C186.138 249.628 191.054 242.135 195.172 243.112V248.791H196.432V243.021C197.017 242.636 197.517 242.136 197.903 241.552C198.289 240.968 198.552 240.312 198.677 239.623C198.785 238.913 198.706 238.187 198.448 237.517C198.189 236.847 197.761 236.256 197.204 235.802C196.954 235.576 196.754 235.301 196.615 234.993C196.477 234.686 196.404 234.353 196.4 234.017L196.354 234.056C196.354 233.942 196.325 233.824 196.312 233.704C195.95 230.772 195.497 224.722 197.097 220.246C199.289 214.108 199.954 205.56 198.358 200.471C197.843 198.844 197.42 197.19 197.09 195.516C197.051 195.304 197.015 195.102 196.983 194.913C198.074 195.061 199.155 195.279 200.218 195.565C203.916 196.585 212.005 196.773 218.911 196.718C218.927 196.907 218.947 197.106 218.97 197.305C219.093 198.686 219.35 200.052 219.739 201.383C220.605 203.989 221.003 215.48 221.003 215.48C221.003 215.48 222.12 224.927 221.511 228.771C221.185 230.909 220.859 233.055 220.674 235.212V235.254C220.674 235.254 218.843 240.467 217.504 243.298C217.471 243.37 217.435 243.441 217.403 243.51C217.046 243.542 216.694 243.62 216.357 243.741C216.357 243.741 214.562 247.325 212.773 247.917C210.985 248.51 211.578 250.462 215.627 249.745C219.677 249.028 225.792 248.442 225.792 248.442L226.056 244.787L227.3 243.23L226.974 246.875L228.3 246.614L228.124 242.181L230.16 239.633C230.16 239.633 232.62 237.444 228.965 233.137V233.231C228.926 233.169 228.89 233.104 228.847 233.042V233.023C228.241 232.085 227.759 230.335 228.642 227.231C230.239 221.621 231.167 216.529 231.167 216.529C231.167 216.529 234.731 202.888 230.447 196.435H230.636C230.197 195.527 229.887 194.562 229.714 193.568C229.692 193.451 229.673 193.33 229.655 193.206C232.825 193.024 235.936 192.45 238.474 191.212C238.464 191.199 236.937 158.83 235.673 153.676ZM195.429 131.1V131.165L194.777 131.198L195.429 131.1ZM193.194 131.409C193.087 131.433 192.987 131.481 192.901 131.549C192.621 131.946 192.445 132.406 192.389 132.888L191.373 132.66C191.373 132.66 190.66 132.507 189.633 132.334L189.148 131.846C190.484 131.735 191.871 131.572 193.194 131.409Z" fill="url(#paint1_linear_2_286)"/>
<path d="M316.824 242.226L316.437 246.843L317.737 246.582L317.541 241.575L316.824 242.226Z" fill="#1D2366"/>
<path d="M197.169 220.308C195.602 224.771 196.045 230.794 196.396 233.72C196.527 234.802 196.647 235.46 196.647 235.46C196.647 235.46 194.305 240.796 194.109 240.998C193.914 241.2 187.216 245.288 187.216 245.288L182.535 248.022C182.535 248.022 177.785 245.94 180.062 245.223C180.527 245.036 180.946 244.751 181.29 244.386C183.571 242.22 186.434 236.834 186.434 236.834C186.434 236.834 186.63 234.101 187.346 232.801C188.063 231.501 187.802 217.842 187.802 217.842L187.858 195.575V192.672L196.768 192.737C196.824 193.722 196.953 194.702 197.152 195.669C197.472 197.337 197.886 198.986 198.393 200.608C199.964 205.687 199.312 214.193 197.169 220.308Z" fill="#FFB0B1"/>
<path opacity="0.1" d="M286.647 235.46C286.647 235.46 284.305 240.796 284.11 240.998C283.914 241.2 277.216 245.289 277.216 245.289L272.535 248.022C272.535 248.022 267.785 245.94 270.062 245.223C270.527 245.037 270.946 244.751 271.29 244.386L271.492 245.81L273.053 245.745L286.41 233.727C286.527 234.802 286.647 235.46 286.647 235.46Z" fill="black"/>
<path d="M286.485 234.03L273.053 246.129L271.492 246.194L271.166 243.914C271.166 243.914 268.436 247.426 262.37 247.23C262.37 247.23 258.728 249.638 264.126 249.768C269.524 249.898 276.418 249.573 276.418 249.573C276.418 249.573 281.233 242.08 285.263 243.057V248.716H286.501V243.005C287.076 242.617 287.568 242.117 287.945 241.535C288.322 240.953 288.578 240.3 288.697 239.617C288.804 238.913 288.728 238.193 288.476 237.526C288.225 236.86 287.806 236.269 287.26 235.812C287.016 235.583 286.822 235.307 286.688 235.001C286.555 234.694 286.486 234.364 286.485 234.03Z" fill="#1D2366"/>
<path d="M228.062 227.266C227.196 230.361 227.668 232.104 228.261 233.039V233.059C229.022 234.213 229.55 235.504 229.818 236.86L229.87 237.154L223.759 246.064L220.442 247.367C220.442 247.367 215.109 245.546 216.083 245.025C216.328 244.897 216.709 244.22 217.145 243.285C218.448 240.467 220.247 235.267 220.247 235.267V235.225C220.436 233.078 220.735 230.938 221.068 228.807C221.664 224.973 220.569 215.561 220.569 215.561C220.569 215.561 220.178 204.116 219.331 201.513C218.949 200.19 218.695 198.833 218.572 197.461C218.396 195.832 218.357 194.49 218.357 194.49C218.357 194.49 221.869 189.603 228.307 194.881C228.821 195.302 229.274 195.793 229.652 196.34C234.099 202.667 230.519 216.604 230.519 216.604C230.519 216.604 229.623 221.673 228.062 227.266Z" fill="#FFB0B1"/>
<path opacity="0.1" d="M319.88 237.154L313.769 246.064L310.452 247.367C310.452 247.367 305.119 245.546 306.093 245.025C306.338 244.898 306.719 244.22 307.155 243.285C309.413 243.265 310.582 245.416 310.582 245.416L313.443 244.96C313.443 244.96 317.215 237.545 318.062 237.092C318.909 236.639 318.193 233.707 318.193 233.707V232.961C318.215 232.987 318.235 233.016 318.261 233.043V233.062C319.022 234.217 319.55 235.508 319.818 236.864L319.88 237.154Z" fill="black"/>
<path d="M310.778 245.608C310.778 245.608 309.149 242.617 306.028 243.722C306.028 243.722 304.272 247.305 302.516 247.885C300.76 248.465 301.346 250.42 305.314 249.706C309.283 248.993 315.264 248.403 315.264 248.403L315.524 244.758L319.558 239.62C319.558 239.62 321.962 237.441 318.385 233.15V233.896C318.385 233.896 319.102 236.828 318.255 237.281C317.407 237.734 313.648 245.152 313.648 245.152L310.778 245.608Z" fill="#1D2366"/>
<path opacity="0.1" d="M196.778 192.731C196.834 193.716 196.962 194.696 197.162 195.663C193.494 195.125 190.089 195.392 187.858 195.568V192.666L196.778 192.731Z" fill="black"/>
<path opacity="0.1" d="M230.014 197.152C230.014 197.152 224.801 197.406 218.585 197.458C218.409 195.829 218.37 194.487 218.37 194.487C218.37 194.487 221.882 189.6 228.32 194.878C228.834 195.299 229.287 195.79 229.665 196.337C229.766 196.615 229.882 196.887 230.014 197.152Z" fill="black"/>
<path d="M230.014 196.565C230.014 196.565 207.183 197.669 200.224 195.718C193.266 193.766 186.369 195.457 185.33 195.004C184.29 194.552 185.134 187.459 186.046 185.703C186.959 183.947 191.963 166.189 191.963 166.189L196.778 141.085L201.85 139.687L202.208 139.586L211.047 137.149L217.523 135.361C217.523 135.361 230.401 185.638 229.297 189.346C228.896 190.765 228.831 192.259 229.108 193.708C229.277 194.697 229.582 195.659 230.014 196.565Z" fill="#1D2366"/>
<path d="M179.994 123.917C179.994 123.917 175.433 128.803 178.886 131.527C182.339 134.25 184.61 131.787 184.61 131.787L179.994 123.917Z" fill="#C7DAF5"/>
<path opacity="0.1" d="M179.994 123.917C179.994 123.917 175.433 128.803 178.886 131.527C182.339 134.25 184.61 131.787 184.61 131.787L179.994 123.917Z" fill="black"/>
<path d="M216.842 91.7883C216.842 91.7883 216.308 92.2965 215.504 93.0458C214.357 94.1176 212.659 95.6846 211.154 96.9974C209.069 98.812 207.349 100.144 207.965 99.0075C208.581 97.8705 208.463 95.8898 208.157 94.0361C208.134 93.9123 208.115 93.7885 208.092 93.668C207.838 92.3066 207.502 90.9619 207.085 89.6414C207.085 89.6414 210.454 85.289 212.317 83.5721C213.011 82.9206 213.497 82.6534 213.526 83.1063C213.559 83.7155 214.015 85.0609 214.582 86.4878C214.598 86.5334 214.614 86.5758 214.634 86.6214C215.012 87.5987 215.438 88.6021 215.813 89.4687C216.386 90.7979 216.842 91.7883 216.842 91.7883Z" fill="#FFB0B1"/>
<path opacity="0.1" d="M214.634 86.6215C214.317 88.3241 213.549 89.9105 212.41 91.2148C211.27 92.5192 209.802 93.4936 208.157 94.0362C207.898 92.5491 207.54 91.0809 207.085 89.6415C207.085 89.6415 213.428 81.4481 213.526 83.1063C213.549 83.7351 214.044 85.1294 214.634 86.6215Z" fill="black"/>
<path opacity="0.1" d="M207.525 96.2254L208.346 95.0688C208.346 95.0688 208.89 98.3853 210.89 96.9225C212.891 95.4598 212.988 107.931 212.988 107.931L210.841 140.03L195.328 139.101L195.768 123.591L197.524 115.772L201.866 104.406L204.45 100.649L207.525 96.2254Z" fill="black"/>
<path d="M212.988 108.129L211.034 137.153L210.828 140.228L202.179 139.71L201.853 139.69L195.338 139.3L195.777 123.786L197.533 115.967L201.876 104.601L204.459 100.845L207.535 96.4042L208.356 95.251C208.356 95.251 208.9 98.5674 210.9 97.1047L210.942 97.0753C212.897 95.8374 212.988 108.129 212.988 108.129Z" fill="#1D2366"/>
<path d="M197.752 113.25C197.752 113.25 196.973 114.879 195.409 114.616C193.846 114.352 193.849 120.48 193.849 120.48C193.849 120.48 192.81 121.457 192.093 120.61C191.376 119.763 189.487 122.626 189.487 122.626L177.648 123.148C177.648 123.148 182.916 125.555 181.883 132.84C181.883 132.84 199.768 131.732 200.355 130.041C200.941 128.35 197.752 113.25 197.752 113.25Z" fill="white"/>
<path opacity="0.03" d="M197.752 113.25C197.752 113.25 196.973 114.879 195.409 114.616C193.846 114.352 193.849 120.48 193.849 120.48C193.849 120.48 192.81 121.457 192.093 120.61C191.376 119.763 189.487 122.626 189.487 122.626L177.648 123.148C177.648 123.148 182.916 125.555 181.883 132.84C181.883 132.84 199.768 131.732 200.355 130.041C200.941 128.35 197.752 113.25 197.752 113.25Z" fill="black"/>
<path d="M163.346 126.976L166.467 129.64L192.158 135.039L188.972 131.787L163.346 126.976Z" fill="white"/>
<path d="M207.574 97.2516C207.147 97.9032 205.926 101.239 204.906 104.152C204.056 106.579 203.345 108.712 203.345 108.712C203.345 108.712 201.687 119.509 200.84 121.46C199.993 123.412 200.452 131.022 200.452 131.022L197.296 149.816C197.296 149.816 195.865 159.508 193.657 165.297C191.477 170.995 189.05 173.666 188.975 173.751C189.953 172.428 195.279 146.386 195.279 146.386L197.038 113.541C197.038 113.541 197.296 110.42 197.556 107.751C197.817 105.083 203.094 101.441 203.094 101.441L208.183 94.2056C208.695 94.8897 208.353 96.0821 207.574 97.2516Z" fill="white"/>
<path d="M194.305 139.463C194.305 139.463 186.812 139.137 183.183 134.778C179.554 130.419 191.572 133.038 191.572 133.038L194.696 133.755L194.305 139.463Z" fill="#FFB0B1"/>
<path opacity="0.1" d="M229.297 189.349C228.896 190.769 228.831 192.262 229.108 193.711C220.934 194.291 212.19 192.082 212.19 192.082C210.561 193.581 206.271 195.79 206.271 195.79L203.932 166.795C202.436 162.886 201.85 142.404 201.85 142.404C201.85 142.404 201.984 141.332 202.176 139.726C202.176 139.687 202.176 139.645 202.192 139.606C202.775 135.12 203.932 126.698 204.499 125.561C205.281 123.998 202.094 119.838 202.094 119.838L203.544 107.474L203.72 105.982C206.776 104.617 209.118 100.258 209.118 100.258L210.917 97.1079C212.871 95.8537 212.972 108.145 212.972 108.145L211.018 137.169L217.494 135.38C217.494 135.38 230.401 185.642 229.297 189.349Z" fill="black"/>
<path d="M237.686 191.352C228.776 195.777 212.581 191.678 212.581 191.678C210.952 193.177 206.662 195.386 206.662 195.386L204.319 166.391C202.827 162.482 202.241 142 202.241 142C202.241 142 204.124 126.718 204.906 125.157C205.134 124.701 205.023 124.024 204.753 123.294C203.423 119.821 202.934 116.082 203.326 112.384L203.951 107.07L204.124 105.581C207.183 104.213 209.525 99.8543 209.525 99.8543L211.154 97.0004L214.151 91.7424L215.572 89.2534L215.813 89.4717L217.654 91.1397C217.654 91.1397 218.436 91.7912 219.608 92.7686C222.159 94.9187 226.567 98.7043 228.841 101.021C230.841 103.06 231.473 110.993 231.656 116.964C231.776 120.896 231.705 123.978 231.705 123.978C229.688 127.298 234.962 153.95 234.962 153.95C236.191 159.1 237.686 191.352 237.686 191.352Z" fill="white"/>
<path opacity="0.03" d="M220.582 99.7891C220.582 99.7891 214.468 111.429 215.178 115.853C215.888 120.277 217.908 125.285 216.934 126.454C216.599 126.897 216.166 127.257 215.67 127.505C215.173 127.753 214.625 127.883 214.07 127.884C213.093 127.949 210.487 129.771 210.487 129.966C210.487 130.161 208.079 130.161 205.926 131.074C203.772 131.986 200.593 132.504 200.593 132.504C200.593 132.504 194.403 132.308 193.826 132.895C193.25 133.481 192.657 136.99 193.891 139.788C195.126 142.587 196.498 144.675 197.534 145.056C198.57 145.437 205.144 143.235 210.477 142.714C215.81 142.192 221.599 137.967 221.599 137.967C221.599 137.967 227.974 135.687 229.092 131.852C230.209 128.018 227.727 106.943 227.727 106.943C227.727 106.943 225.85 97.121 220.582 99.7891Z" fill="black"/>
<path opacity="0.03" d="M219.801 98.8121C219.801 98.8121 213.686 110.455 214.402 114.876C215.119 119.297 217.132 124.308 216.155 125.48C215.822 125.924 215.39 126.284 214.893 126.532C214.397 126.78 213.85 126.91 213.295 126.911C212.317 126.976 209.711 128.797 209.711 128.992C209.711 129.188 207.304 129.188 205.15 130.097C202.997 131.006 199.817 131.527 199.817 131.527C199.817 131.527 193.627 131.331 193.054 131.918C192.481 132.504 191.881 136.016 193.119 138.811C194.357 141.606 195.725 143.698 196.761 144.079C197.797 144.46 204.372 142.258 209.705 141.74C215.038 141.222 220.827 136.99 220.827 136.99C220.827 136.99 227.199 134.71 228.303 130.879C229.408 127.047 226.938 105.966 226.938 105.966C226.938 105.966 225.068 96.1472 219.801 98.8121Z" fill="black"/>
<path d="M220.39 99.203C220.39 99.203 214.275 110.846 214.992 115.267C215.709 119.688 217.722 124.698 216.748 125.868C216.415 126.313 215.982 126.674 215.485 126.922C214.988 127.171 214.44 127.301 213.884 127.301C212.907 127.367 210.301 129.188 210.301 129.38C210.301 129.572 207.897 129.575 205.74 130.488C203.583 131.4 200.407 131.918 200.407 131.918C200.407 131.918 194.217 131.722 193.64 132.309C193.064 132.895 192.471 136.407 193.706 139.202C194.94 141.997 196.312 144.089 197.348 144.47C198.384 144.851 204.958 142.649 210.291 142.128C215.624 141.606 221.413 137.381 221.413 137.381C221.413 137.381 227.789 135.101 228.906 131.266C230.024 127.432 227.557 106.357 227.557 106.357C227.557 106.357 225.655 96.5512 220.39 99.203Z" fill="white"/>
<path opacity="0.1" d="M220.257 130.432C220.257 130.432 215.37 129.455 217.071 131.083C218.771 132.712 218.761 134.139 220.843 134.074C222.925 134.009 220.257 130.432 220.257 130.432Z" fill="black"/>
<path opacity="0.1" d="M228.515 165.479C228.515 165.479 226.306 166.975 230.532 170.422C234.757 173.868 228.515 165.479 228.515 165.479Z" fill="black"/>
<path opacity="0.1" d="M224.3 177.771C224.3 177.966 223.518 184.938 226.443 186.681C229.369 188.424 224.3 177.771 224.3 177.771Z" fill="black"/>
<path d="M177.85 123.131C175.491 123.213 170.396 123.933 173.038 128.862C175.374 133.224 179.3 130.308 181.508 128.096C180.97 126.034 179.66 124.257 177.85 123.131Z" fill="#FFB0B1"/>
<path d="M181.538 128.057L181.635 127.956L181.538 128.057Z" fill="#FFB0B1"/>
<path opacity="0.1" d="M219.608 92.9675C217.106 94.6778 215.008 96.121 214.598 96.4207C213.477 97.2515 211.34 102.128 209.962 104.617C208.864 106.621 205.297 107.136 203.951 107.263L204.124 105.774C207.183 104.406 209.525 100.047 209.525 100.047L215.572 89.4458L217.654 91.3386C217.654 91.3386 218.435 91.9901 219.608 92.9675Z" fill="black"/>
<path d="M219.608 92.7722C217.106 94.4825 215.008 95.9257 214.598 96.2287C213.477 97.0561 211.34 101.933 209.962 104.422C208.864 106.426 205.297 106.94 203.951 107.067L204.124 105.579C207.183 104.21 209.525 99.8513 209.525 99.8513L215.572 89.2505L217.654 91.1367C217.654 91.1367 218.435 91.7818 219.608 92.7722Z" fill="#DCE7FF"/>
<path d="M214.793 84.471C214.795 86.4266 214.202 88.3365 213.093 89.9473C211.783 91.8519 209.834 93.224 207.599 93.8146C205.365 94.4051 202.992 94.1751 200.913 93.1661C198.833 92.1571 197.184 90.4361 196.265 88.3154C195.346 86.1946 195.217 83.8146 195.903 81.6071C196.588 79.3997 198.042 77.5111 200.001 76.2841C201.96 75.057 204.294 74.5728 206.579 74.9192C208.864 75.2657 210.95 76.4199 212.457 78.1724C213.964 79.9249 214.793 82.1596 214.793 84.471Z" fill="#FFB0B1"/>
<path opacity="0.1" d="M231.656 116.967C230.333 116.154 229.255 114.996 228.538 113.618C227.994 112.543 227.632 111.302 226.704 110.54C225.867 109.856 224.749 109.69 223.707 109.383C220.279 108.37 217.406 105.243 217.299 101.672C217.246 99.9911 217.771 98.3134 217.533 96.6486C217.398 95.7065 217.023 94.8147 216.445 94.0587C216.158 93.6971 215.843 93.3584 215.503 93.0455C215.047 92.6155 214.568 92.1985 214.151 91.7424C213.889 91.46 213.659 91.1485 213.467 90.8139C213.312 90.5402 213.187 90.2508 213.093 89.9506C212.441 87.9569 213.034 85.5917 212.317 83.5751L212.278 83.4644C212.008 82.7477 211.457 82.031 210.692 81.9756C209.926 81.9202 209.271 82.5555 208.542 82.8389C207.014 83.4318 205.365 82.4219 204.091 81.3924C202.818 80.363 201.381 79.1869 199.762 79.4149C198.69 79.5681 197.843 80.2978 196.856 80.6757C196.633 80.762 196.403 80.8285 196.168 80.8744C197.004 78.7911 198.539 77.0637 200.509 75.9891C202.48 74.9145 204.763 74.5596 206.967 74.9856C209.171 75.4116 211.157 76.5917 212.586 78.3233C214.014 80.0548 214.794 82.2297 214.793 84.4743C214.794 85.1521 214.723 85.8281 214.582 86.4909C214.598 86.5365 214.614 86.5788 214.634 86.6244C215.012 87.6018 215.438 88.6052 215.813 89.4717L217.654 91.1397C217.654 91.1397 218.435 91.7913 219.608 92.7686C222.159 94.9188 226.567 98.7043 228.841 101.021C230.841 103.066 231.467 110.996 231.656 116.967Z" fill="black"/>
<path d="M196.742 74.7241C197.208 73.7761 197.439 72.714 197.996 71.8149C198.814 70.5118 200.241 69.6778 201.707 69.1728C205.535 67.8534 213.624 65.9378 216.041 69.1728C216.517 69.8244 216.911 70.5476 217.569 70.9972C218.071 71.3393 218.677 71.4859 219.227 71.7432C220.768 72.4665 221.752 74.0432 222.276 75.6526C222.801 77.2619 222.957 78.9885 223.342 80.6468C223.834 82.7741 224.697 84.7907 225.557 86.7942C226.57 89.1593 227.645 91.6125 229.6 93.2837C232.268 95.5642 232.858 98.7926 235.334 101.295C238.266 104.266 238.171 109.169 236.66 113.062C236.461 113.573 236.236 114.107 236.314 114.652C236.392 115.196 236.796 115.691 237.178 116.124L238.78 117.932C234.988 118.848 230.698 116.867 228.932 113.391C228.388 112.316 228.026 111.078 227.095 110.312C226.261 109.628 225.14 109.465 224.101 109.159C220.674 108.142 217.8 105.012 217.693 101.441C217.641 99.7635 218.165 98.0857 217.927 96.4242C217.795 95.4757 217.419 94.5778 216.836 93.818C215.94 92.6484 214.588 91.8633 213.858 90.5602C212.624 88.3807 213.562 85.5497 212.672 83.2106C212.399 82.4939 211.851 81.7772 211.086 81.7218C210.32 81.6664 209.665 82.3017 208.932 82.5851C207.408 83.1781 205.759 82.1714 204.486 81.1387C203.212 80.106 201.775 78.9332 200.153 79.1645C199.081 79.3143 198.237 80.0441 197.25 80.4252C196.52 80.7054 195.041 80.9562 194.403 80.3405C193.054 79.0993 196.178 75.8839 196.742 74.7241Z" fill="#591D4B"/>
<path opacity="0.1" d="M229.838 112.315C229.291 111.24 228.932 110.002 228 109.24C227.166 108.556 226.046 108.39 225.003 108.083C221.579 107.07 218.706 103.939 218.595 100.369C218.543 98.6912 219.068 97.0102 218.833 95.3487C218.697 94.4063 218.321 93.5146 217.742 92.7588C216.842 91.5892 215.49 90.8041 214.764 89.501C213.529 87.3248 214.468 84.4938 213.575 82.1514C213.304 81.438 212.754 80.7213 211.992 80.6626C211.229 80.604 210.568 81.2458 209.838 81.5292C208.314 82.1221 206.662 81.1122 205.391 80.0827C204.121 79.0533 202.678 77.8772 201.058 78.1052C199.987 78.2584 199.14 78.9881 198.156 79.366C197.426 79.6462 195.944 79.9003 195.305 79.2846C193.963 77.9815 197.087 74.7725 197.648 73.6193C198.113 72.668 198.345 71.6092 198.905 70.7101C198.934 70.6612 198.967 70.6123 199 70.5635C198.58 70.9107 198.219 71.3219 197.928 71.7819C197.371 72.681 197.139 73.7366 196.673 74.6911C196.11 75.8443 192.986 79.063 194.331 80.3564C194.983 80.9754 196.449 80.7212 197.178 80.4411C198.156 80.0599 199.009 79.3302 200.081 79.1803C201.71 78.949 203.143 80.1251 204.414 81.1545C205.685 82.184 207.346 83.1939 208.864 82.601C209.594 82.3176 210.232 81.679 211.014 81.7377C211.796 81.7963 212.317 82.5098 212.601 83.2265C213.49 85.5656 212.552 88.3966 213.787 90.5761C214.516 91.8564 215.868 92.6578 216.764 93.8338C217.347 94.5936 217.723 95.4916 217.856 96.4401C218.093 98.1015 217.569 99.7793 217.621 101.457C217.729 105.041 220.602 108.158 224.029 109.175C225.062 109.481 226.189 109.644 227.023 110.328C227.958 111.094 228.326 112.332 228.86 113.407C230.626 116.883 234.917 118.863 238.709 117.948L237.953 117.094C234.666 117.143 231.34 115.273 229.838 112.315Z" fill="black"/>
<path opacity="0.1" d="M207.378 97.4468C206.952 98.0983 205.73 101.434 204.71 104.347C203.756 103.975 202.889 101.607 202.889 101.607L207.978 94.3682C208.499 95.0849 208.157 96.274 207.378 97.4468Z" fill="black"/>
<path d="M207.574 97.2516C207.147 97.9032 205.925 101.239 204.906 104.152C203.951 103.783 203.085 101.412 203.085 101.412L208.173 94.1763C208.695 94.8897 208.353 96.0821 207.574 97.2516Z" fill="#DCE7FF"/>
<path d="M177.987 130.533L175.165 121.636C175.132 121.532 175.12 121.422 175.129 121.313C175.138 121.204 175.168 121.098 175.219 121.001C175.269 120.904 175.338 120.817 175.421 120.747C175.505 120.676 175.602 120.623 175.706 120.59C175.916 120.525 176.144 120.545 176.339 120.646C176.534 120.747 176.681 120.922 176.749 121.131L179.57 130.018L179.29 131.878L177.987 130.533Z" fill="#BE8B87"/>
<path opacity="0.1" d="M175.433 120.854C175.643 120.788 175.871 120.807 176.067 120.909C176.263 121.01 176.411 121.185 176.478 121.395L179.3 130.282L179.088 131.677L179.293 131.892L179.573 130.031L176.736 121.144C176.668 120.935 176.521 120.76 176.326 120.659C176.13 120.558 175.903 120.538 175.693 120.603C175.517 120.661 175.364 120.775 175.26 120.929C175.315 120.899 175.373 120.874 175.433 120.854Z" fill="white"/>
<path d="M177.987 130.533L179.57 130.031L179.339 131.556L179.29 131.891L178.827 131.409L177.987 130.533Z" fill="#EFC8C4"/>
<path d="M178.827 131.41C178.855 131.375 178.889 131.346 178.928 131.325C178.951 131.31 178.978 131.303 179.005 131.303C179.032 131.303 179.058 131.31 179.081 131.325C179.103 131.352 179.122 131.381 179.137 131.413C179.158 131.449 179.188 131.479 179.222 131.503C179.257 131.526 179.297 131.541 179.339 131.546L179.29 131.872L178.827 131.41Z" fill="#727A9C"/>
<path d="M175.149 124.796C175.149 124.796 180.808 124.763 179.475 127.171C178.143 129.578 176.061 129.868 176.061 129.868L175.149 124.796Z" fill="#FFB0B1"/>
<path d="M289.955 6.75146H289.711C279.989 6.75146 271.392 11.8955 266.447 19.4862C261.501 11.8955 252.904 6.75146 243.183 6.75146H242.939C235.643 6.82099 228.67 9.76688 223.534 14.9489C218.398 20.131 215.515 27.1305 215.511 34.4264C215.511 43.4863 219.479 56.3415 227.216 66.9195C241.958 87.0754 266.447 104.71 266.447 104.71C266.447 104.71 290.936 87.0787 305.674 66.9195C313.415 56.3415 317.379 43.4863 317.379 34.4264C317.375 27.1311 314.493 20.1321 309.358 14.9501C304.223 9.76811 297.25 6.82184 289.955 6.75146ZM286.459 68.4702C285.352 68.466 284.272 68.1271 283.361 67.4981C282.45 66.869 281.751 65.9791 281.355 64.9453H275.543C275.16 64.9429 274.787 64.8211 274.477 64.5968C274.167 64.3725 273.935 64.057 273.813 63.6943L272.027 58.3157L266.378 78.0546C266.268 78.4346 266.038 78.7686 265.722 79.0066C265.406 79.2445 265.021 79.3734 264.626 79.374H264.512C264.099 79.3541 263.706 79.1931 263.397 78.918C263.089 78.6428 262.884 78.2702 262.818 77.8624L256.996 42.8477L252.741 63.5673C252.644 63.9609 252.417 64.3104 252.098 64.5602C251.778 64.81 251.384 64.9456 250.979 64.9453H242.792C242.547 64.9557 242.302 64.9163 242.072 64.8296C241.842 64.7428 241.632 64.6105 241.455 64.4405C241.277 64.2705 241.136 64.0664 241.04 63.8405C240.943 63.6146 240.894 63.3715 240.894 63.1258C240.894 62.8802 240.943 62.6371 241.04 62.4112C241.136 62.1852 241.277 61.9811 241.455 61.8112C241.632 61.6412 241.842 61.5088 242.072 61.4221C242.302 61.3353 242.547 61.296 242.792 61.3064H249.545L255.572 33.449C255.671 33.0372 255.91 32.6724 256.248 32.4172C256.586 32.162 257.002 32.0322 257.426 32.0499C257.849 32.0676 258.253 32.2317 258.568 32.5143C258.884 32.7968 259.092 33.1802 259.156 33.5989L265.101 69.3173L270.164 51.6568C270.269 51.2848 270.492 50.957 270.799 50.7221C271.106 50.4872 271.481 50.358 271.868 50.3537H271.904C272.286 50.3538 272.66 50.4748 272.97 50.6994C273.28 50.9241 273.511 51.2409 273.63 51.6047L276.859 61.3161H281.283C281.597 60.3605 282.17 59.5104 282.937 58.8595C283.704 58.2087 284.636 57.7825 285.63 57.628C286.625 57.4734 287.642 57.5966 288.571 57.9838C289.499 58.371 290.303 59.0072 290.893 59.8223C291.482 60.6373 291.836 61.5995 291.913 62.6026C291.991 63.6056 291.789 64.6106 291.332 65.5066C290.874 66.4026 290.178 67.1547 289.32 67.68C288.462 68.2053 287.475 68.4832 286.469 68.4833L286.459 68.4702Z" fill="#FFC0D7"/>
</g>
<defs>
<linearGradient id="paint0_linear_2_286" x1="116.085" y1="252.436" x2="116.085" y2="51.9715" gradientUnits="userSpaceOnUse">
<stop stop-color="#808080" stop-opacity="0.25"/>
<stop offset="0.54" stop-color="#808080" stop-opacity="0.12"/>
<stop offset="1" stop-color="#808080" stop-opacity="0.1"/>
</linearGradient>
<linearGradient id="paint1_linear_2_286" x1="201.062" y1="249.901" x2="201.062" y2="66.8139" gradientUnits="userSpaceOnUse">
<stop stop-color="#808080" stop-opacity="0.25"/>
<stop offset="0.54" stop-color="#808080" stop-opacity="0.12"/>
<stop offset="1" stop-color="#808080" stop-opacity="0.1"/>
</linearGradient>
<clipPath id="clip0_2_286">
<rect width="360" height="255" fill="white"/>
</clipPath>
</defs>
</svg>
