<svg width="300" height="204" viewBox="0 0 300 204" fill="none" xmlns="http://www.w3.org/2000/svg">
<g clip-path="url(#clip0_15_4359)">
<path d="M274.418 71.0311C274.103 71.2899 273.788 71.5373 273.465 71.781H193.925C193.332 71.5373 192.742 71.2874 192.155 71.0311C183.758 67.3768 175.942 62.5108 168.957 56.5883C164.319 52.6589 160.052 48.6021 156.959 44.8002C152.644 39.4947 148.669 33.7131 146.821 27.1254C144.976 20.5376 145.527 12.9863 149.648 7.52335C150.924 5.84288 152.492 4.40635 154.278 3.28275C154.575 3.09528 154.875 2.91531 155.182 2.74659C160.124 -0.0279908 166.359 -0.702892 171.923 0.733139C179.891 2.79158 186.512 8.53945 191.236 15.2809C195.961 22.0186 199.028 29.7575 202.05 37.41C205.117 23.7509 214.404 11.5165 226.95 5.29619C239.492 -0.924109 255.074 -0.849119 267.35 5.8886C271.212 8.02143 274.701 10.7695 277.68 14.0249C277.976 14.3436 278.265 14.6698 278.549 14.9997C284.537 21.9324 288.283 30.8111 288.59 39.9672C288.984 51.7628 283.517 63.611 274.418 71.0311Z" fill="#F2F2F2"/>
<path d="M197.104 71.781H195.979C195.965 71.5298 195.946 71.2824 195.923 71.0311C195.53 66.1267 194.707 61.2663 193.464 56.5059C190.611 45.6377 185.738 35.4036 179.1 26.338C172.48 17.2433 164.135 9.54056 154.541 3.66892C154.471 3.62871 154.41 3.57303 154.365 3.50611C154.32 3.4392 154.29 3.3628 154.278 3.28273C154.26 3.17803 154.272 3.07026 154.312 2.972C154.353 2.87373 154.421 2.78901 154.507 2.72771C154.594 2.66641 154.697 2.63105 154.803 2.62576C154.909 2.62046 155.015 2.64546 155.107 2.69782C155.133 2.71274 155.158 2.729 155.182 2.74656C160.618 6.05976 165.664 9.97376 170.225 14.4148C178.383 22.3734 184.962 31.8042 189.613 42.2093C193.716 51.3222 196.23 61.0702 197.044 71.0311C197.067 71.2823 197.086 71.5336 197.104 71.781Z" fill="white"/>
<path d="M278.55 14.9997C278.541 15.0039 278.532 15.0064 278.523 15.0072C277.702 15.1572 276.877 15.3146 276.06 15.4834C269.35 16.8613 262.782 18.8557 256.439 21.4412C250.113 24.023 244.027 27.1598 238.254 30.8148C232.474 34.4679 227.023 38.6179 221.963 43.2179C216.903 47.8112 212.262 52.8453 208.094 58.2606C204.979 62.318 202.146 66.5849 199.617 71.0312C199.474 71.2786 199.335 71.5298 199.197 71.781H197.911C198.046 71.5298 198.184 71.2786 198.327 71.0312C201.387 65.5832 204.896 60.3998 208.818 55.5348C213.154 50.1506 217.961 45.1629 223.182 40.6308C228.369 36.1242 233.936 32.0747 239.822 28.5276C245.731 24.9662 251.945 21.9348 258.389 19.469C264.642 17.0783 271.099 15.2562 277.68 14.0248C277.863 13.9911 278.043 13.9573 278.227 13.9236C278.928 13.7961 279.228 14.8535 278.55 14.9997Z" fill="white"/>
<path d="M74.1187 74.01C76.1189 70.2341 76.4491 65.3162 73.9619 61.8416C72.4814 59.7733 70.1697 58.4156 67.7442 57.6498C65.3187 56.884 62.7599 56.659 60.2232 56.4729C57.712 56.2886 55.1562 56.1412 52.7032 56.7091C50.2502 57.2771 47.8742 58.6646 46.6792 60.8808C44.6605 64.6248 46.4995 69.4255 45.0168 73.4123C43.6561 77.0709 39.7836 79.2098 35.9768 80.073C32.17 80.9362 28.1967 80.8443 24.388 81.6991C20.5793 82.5539 16.7003 84.673 15.3155 88.3226C14.3141 90.9617 14.8117 94.0016 16.1312 96.4969C17.4507 98.9922 19.5172 101.012 21.7108 102.789C24.9832 105.439 28.8117 107.709 33.0164 107.939C37.4469 108.181 41.7789 106.072 44.9677 102.986C48.1565 99.9011 50.3274 95.9141 52.0619 91.8301C53.1622 89.2392 54.2018 86.4509 56.4068 84.7014C58.0271 83.4158 60.0879 82.8526 62.0865 82.3199L64.3496 81.7167C66.4003 81.1801 68.3195 80.2296 69.9891 78.9237C71.6588 77.6178 73.0436 75.984 74.0584 74.123C74.0786 74.0855 74.0987 74.0478 74.1187 74.01Z" fill="#2F2E41"/>
<path d="M56.2713 198.219H51.6748L49.4878 180.489H56.2724L56.2713 198.219Z" fill="#FFB8B8"/>
<path d="M48.3908 196.906H57.2559V202.487H42.8091C42.8091 201.754 42.9535 201.028 43.234 200.351C43.5145 199.674 43.9256 199.059 44.4439 198.54C44.9622 198.022 45.5776 197.611 46.2548 197.33C46.932 197.05 47.6578 196.906 48.3908 196.906Z" fill="#2F2E41"/>
<path d="M94.5154 198.219H89.919L87.7319 180.489H94.5165L94.5154 198.219Z" fill="#FFB8B8"/>
<path d="M86.6354 196.906H95.5005V202.487H81.0537C81.0537 201.754 81.1981 201.028 81.4786 200.351C81.7591 199.674 82.1702 199.059 82.6886 198.54C83.2069 198.022 83.8222 197.611 84.4994 197.33C85.1766 197.05 85.9024 196.906 86.6354 196.906Z" fill="#2F2E41"/>
<path d="M65.1071 184.127C65.043 184.127 64.9789 184.123 64.9151 184.117L46.214 182.113C45.9656 182.086 45.7257 182.007 45.5104 181.881C45.295 181.754 45.1091 181.583 44.9649 181.379C44.8208 181.175 44.7217 180.943 44.6744 180.697C44.6271 180.452 44.6326 180.2 44.6905 179.957L61.2489 116.977C61.3264 116.657 61.492 116.364 61.7269 116.133C61.9617 115.902 62.2566 115.741 62.5782 115.668L77.9388 111.386C78.2469 111.318 78.5673 111.334 78.8672 111.432C79.167 111.53 79.4353 111.706 79.6443 111.942C89.5204 123.081 96.963 147.775 102.601 178.901C102.643 179.136 102.638 179.377 102.584 179.609C102.53 179.842 102.43 180.061 102.289 180.254C102.148 180.446 101.969 180.608 101.764 180.729C101.558 180.851 101.33 180.929 101.093 180.959L85.7699 182.916C85.3353 182.972 84.8953 182.864 84.5364 182.612C84.1776 182.36 83.926 181.984 83.8312 181.556L76.3759 148.318C76.3074 148.012 76.1358 147.739 75.8899 147.544C75.6441 147.35 75.3388 147.245 75.0253 147.249C74.7118 147.253 74.4091 147.364 74.1678 147.564C73.9265 147.764 73.7613 148.041 73.6998 148.349L66.827 182.712C66.7492 183.111 66.5349 183.471 66.2211 183.729C65.9073 183.987 65.5134 184.128 65.1071 184.127Z" fill="#2F2E41"/>
<path d="M62.2627 82.6581C67.3487 82.6581 71.4717 78.5351 71.4717 73.4491C71.4717 68.3631 67.3487 64.2401 62.2627 64.2401C57.1767 64.2401 53.0537 68.3631 53.0537 73.4491C53.0537 78.5351 57.1767 82.6581 62.2627 82.6581Z" fill="#FFB8B8"/>
<path d="M62.0055 117.154C61.6183 117.154 61.2422 117.026 60.9355 116.789C60.6289 116.553 60.4091 116.222 60.3102 115.848L54.7701 95.0347C54.3703 93.5391 54.5359 91.9487 55.2352 90.5676C55.9346 89.1865 57.1187 88.1118 58.5608 87.5491C63.0204 85.8083 67.2692 85.1625 71.189 85.6289C74.673 86.0442 78.9708 106.67 78.6865 107.11L80.0613 111.234C80.1393 111.468 80.1672 111.716 80.1433 111.961C80.1193 112.207 80.0441 112.444 79.9224 112.659C79.8007 112.873 79.6353 113.06 79.4369 113.206C79.2385 113.352 79.0115 113.455 78.7707 113.508L62.3876 117.112C62.2621 117.14 62.134 117.154 62.0055 117.154Z" fill="#CCCCCC"/>
<path d="M66.9706 138.439C67.0496 138.029 67.0377 137.607 66.9359 137.203C66.8341 136.798 66.6448 136.421 66.3815 136.097C66.1181 135.774 65.787 135.512 65.4114 135.33C65.0359 135.149 64.6251 135.051 64.208 135.046L61.0162 125.421L57.7539 129.559L61.2851 138.065C61.3219 138.766 61.6147 139.429 62.108 139.929C62.6013 140.429 63.2608 140.731 63.9617 140.777C64.6625 140.823 65.3559 140.611 65.9104 140.18C66.465 139.749 66.8423 139.129 66.9706 138.439Z" fill="#FFB8B8"/>
<path d="M108.007 115.308C107.816 114.937 107.546 114.612 107.216 114.357C106.886 114.102 106.504 113.922 106.097 113.831C105.69 113.739 105.268 113.738 104.86 113.827C104.453 113.916 104.07 114.094 103.738 114.347L95.2812 108.752L95.2734 114.022L103.306 118.527C103.768 119.056 104.408 119.396 105.105 119.484C105.802 119.573 106.507 119.402 107.086 119.005C107.666 118.609 108.079 118.013 108.249 117.332C108.419 116.65 108.333 115.93 108.007 115.308H108.007Z" fill="#FFB8B8"/>
<path d="M60.2787 133.992C59.9088 133.992 59.5483 133.875 59.2485 133.659C58.9487 133.442 58.7248 133.137 58.6087 132.785L51.126 116.957C50.8192 116.029 50.6629 115.058 50.6631 114.081L52.9127 93.5076C52.9127 92.3557 53.3522 91.2472 54.1417 90.4084C54.9311 89.5696 56.011 89.0638 57.1608 88.9941C58.3106 88.9245 59.4436 89.2963 60.3285 90.0337C61.2135 90.771 61.7836 91.8184 61.9226 92.9619L58.4807 116.445L63.9732 130.858C64.0601 131.241 64.0157 131.643 63.8472 131.998C63.6787 132.353 63.3958 132.641 63.0439 132.817L61.065 133.806C60.8208 133.929 60.5516 133.992 60.2787 133.992Z" fill="#CCCCCC"/>
<path d="M100.242 117.386C99.966 117.386 99.6944 117.321 99.4485 117.197L84.5679 109.68C83.6956 109.24 82.8994 108.663 82.2099 107.97L67.6858 93.3993C66.8726 92.5835 66.4015 91.4881 66.3685 90.3367C66.3356 89.1853 66.7434 88.0648 67.5086 87.2038C68.2738 86.3429 69.3387 85.8064 70.486 85.704C71.6333 85.6016 72.7764 85.9409 73.682 86.6526L89.4156 104.126L101.887 112.045C102.22 112.255 102.472 112.571 102.603 112.941C102.734 113.312 102.738 113.716 102.612 114.088L101.909 116.186C101.792 116.536 101.568 116.839 101.269 117.055C100.969 117.27 100.61 117.386 100.242 117.386L100.242 117.386Z" fill="#CCCCCC"/>
<path d="M51.7881 68.6879C53.3524 70.7343 55.601 72.1492 58.1228 72.674C60.6789 73.2022 63.3392 72.8211 65.6442 71.5964C67.4989 70.5943 68.983 69.0902 70.4367 67.6095C71.0434 66.9915 71.6895 66.2788 71.659 65.4358C71.6117 64.1296 70.0414 63.4155 68.6937 63.1306C64.2699 62.2077 59.6668 62.7254 55.5585 64.6078C53.7288 65.4577 51.8224 66.9954 52.0971 68.9068" fill="#2F2E41"/>
<path d="M293.626 71.0312H112.903C111.214 71.0336 109.594 71.7059 108.399 72.9007C107.204 74.0956 106.532 75.7154 106.529 77.4052V147.145C106.532 148.834 107.204 150.454 108.399 151.649C109.594 152.844 111.214 153.516 112.903 153.519H293.626C295.315 153.516 296.935 152.844 298.13 151.649C299.325 150.454 299.997 148.834 300 147.145V77.4052C299.997 75.7154 299.325 74.0956 298.13 72.9007C296.935 71.7059 295.315 71.0335 293.626 71.0312ZM299.25 147.145C299.248 148.636 298.655 150.065 297.601 151.119C296.546 152.174 295.117 152.767 293.626 152.769H112.903C111.412 152.767 109.983 152.174 108.928 151.119C107.874 150.065 107.281 148.636 107.279 147.145V77.4052C107.281 75.9141 107.874 74.4847 108.928 73.4303C109.983 72.376 111.412 71.7829 112.903 71.781H293.626C295.117 71.7829 296.546 72.376 297.601 73.4303C298.655 74.4847 299.248 75.9141 299.25 77.4052V147.145Z" fill="#3F3D56"/>
<path d="M145.716 134.022C141.415 134.022 137.21 132.746 133.634 130.357C130.058 127.967 127.271 124.571 125.625 120.597C123.979 116.623 123.548 112.251 124.387 108.032C125.226 103.814 127.297 99.939 130.339 96.8976C133.38 93.8563 137.255 91.7851 141.473 90.946C145.692 90.1069 150.064 90.5376 154.038 92.1835C158.012 93.8295 161.408 96.6168 163.798 100.193C166.187 103.769 167.463 107.974 167.463 112.275C167.456 118.04 165.163 123.568 161.086 127.645C157.009 131.722 151.482 134.015 145.716 134.022ZM145.716 91.2781C141.563 91.2781 137.504 92.5095 134.051 94.8167C130.598 97.1238 127.907 100.403 126.317 104.24C124.728 108.076 124.312 112.298 125.123 116.371C125.933 120.444 127.933 124.185 130.869 127.122C133.805 130.058 137.547 132.058 141.62 132.868C145.693 133.678 149.914 133.263 153.751 131.673C157.588 130.084 160.867 127.393 163.174 123.94C165.481 120.487 166.713 116.428 166.713 112.275C166.706 106.708 164.492 101.371 160.556 97.4349C156.62 93.4986 151.283 91.2844 145.716 91.2781Z" fill="#3F3D56"/>
<path d="M277.498 98.402H190.886C189.676 98.4027 188.512 98.8719 187.64 99.7114C186.768 100.551 186.254 101.695 186.207 102.905C186.201 102.966 186.198 103.027 186.2 103.089C186.201 104.331 186.696 105.522 187.574 106.401C188.453 107.279 189.644 107.774 190.886 107.776H277.498C278.741 107.776 279.933 107.282 280.812 106.403C281.691 105.524 282.185 104.332 282.185 103.089C282.185 101.846 281.691 100.654 280.812 99.7747C279.933 98.8958 278.741 98.402 277.498 98.402Z" fill="#F50057"/>
<path d="M277.498 116.774H190.886C189.676 116.775 188.512 117.244 187.64 118.084C186.768 118.923 186.254 120.068 186.207 121.277C186.201 121.338 186.198 121.4 186.2 121.461C186.201 122.703 186.696 123.895 187.574 124.773C188.453 125.652 189.644 126.146 190.886 126.148H277.498C278.741 126.148 279.933 125.654 280.812 124.775C281.691 123.896 282.185 122.704 282.185 121.461C282.185 120.218 281.691 119.026 280.812 118.147C279.933 117.268 278.741 116.774 277.498 116.774Z" fill="#F50057"/>
<path d="M143.29 121.777C142.683 121.778 142.093 121.581 141.607 121.218L141.577 121.195L135.239 116.342C134.945 116.117 134.699 115.837 134.514 115.517C134.329 115.197 134.209 114.843 134.16 114.477C134.112 114.11 134.136 113.738 134.231 113.38C134.327 113.023 134.492 112.688 134.716 112.395C134.941 112.101 135.222 111.855 135.542 111.67C135.862 111.484 136.215 111.364 136.582 111.316C136.949 111.267 137.321 111.291 137.678 111.387C138.036 111.482 138.371 111.647 138.664 111.872L142.769 115.02L152.471 102.368C152.696 102.074 152.977 101.828 153.297 101.643C153.617 101.458 153.97 101.338 154.337 101.289C154.704 101.241 155.076 101.265 155.433 101.361C155.791 101.457 156.125 101.622 156.419 101.847L156.359 101.928L156.42 101.848C157.012 102.303 157.4 102.974 157.497 103.714C157.595 104.454 157.395 105.203 156.942 105.796L145.53 120.678C145.266 121.021 144.927 121.298 144.539 121.489C144.15 121.679 143.723 121.778 143.29 121.777Z" fill="#F50057"/>
<path d="M143.228 203.011H0.374943C0.275502 203.011 0.180133 202.972 0.109818 202.901C0.0395025 202.831 0 202.736 0 202.636C0 202.537 0.0395025 202.441 0.109818 202.371C0.180133 202.301 0.275502 202.261 0.374943 202.261H143.228C143.328 202.261 143.423 202.301 143.493 202.371C143.564 202.441 143.603 202.537 143.603 202.636C143.603 202.736 143.564 202.831 143.493 202.901C143.423 202.972 143.328 203.011 143.228 203.011Z" fill="#3F3D56"/>
<path d="M256.183 54.1398C248.35 53.0624 240.396 53.2418 232.619 54.671C224.866 56.0885 217.381 58.7056 210.433 62.428C206.529 64.526 202.823 66.9744 199.361 69.7429C198.796 70.1946 199.596 70.9859 200.157 70.5383C206.23 65.7067 213.039 61.8793 220.324 59.2017C227.551 56.5287 235.147 54.9877 242.844 54.6329C247.2 54.4329 251.564 54.6309 255.884 55.2244C256.027 55.2588 256.179 55.2374 256.307 55.1645C256.436 55.0915 256.531 54.9726 256.576 54.8316C256.614 54.6878 256.595 54.5345 256.521 54.405C256.448 54.2755 256.326 54.1802 256.183 54.1398H256.183Z" fill="white"/>
</g>
<defs>
<clipPath id="clip0_15_4359">
<rect width="300" height="203.011" fill="white"/>
</clipPath>
</defs>
</svg>
